<?xml version="1.0" encoding="utf-8"?>
<!-- Generator: Adobe Illustrator 28.2.0, SVG Export Plug-In . SVG Version: 6.00 Build 0)  -->
<svg version="1.1" id="Calque_1" xmlns="http://www.w3.org/2000/svg" xmlns:xlink="http://www.w3.org/1999/xlink" x="0px" y="0px"
	 viewBox="0 0 30.72 29.24" style="enable-background:new 0 0 30.72 29.24;" xml:space="preserve">
<style type="text/css">
	.st0{fill:#191412;}
</style>
<g>
	<path class="st0" d="M3.94,28.42c-1.1,0-1.96-0.86-2.02-2.04c-0.1-2.07-0.24-3.08-0.4-4.14c-0.15-1.04-0.31-2.12-0.41-4.25
		c-0.1-2.12-0.14-3.17-0.18-4.23c-0.04-1.04-0.08-2.09-0.18-4.18C0.74,9.12,0.89,8.7,1.2,8.37c0.41-0.45,1.1-0.74,1.85-0.78
		c1.97-0.09,2.92-0.22,3.93-0.36C7.97,7.09,9,6.95,11.02,6.85c2.01-0.1,3.03-0.1,4.02-0.1c0.98,0,1.99,0,3.97-0.1
		c2.01-0.1,3.01-0.15,4.01-0.2c0.99-0.05,1.99-0.1,3.97-0.2c0.57-0.03,1.11,0.15,1.52,0.51c0.42,0.36,0.66,0.88,0.69,1.46
		c0.1,2.08,0.21,3.14,0.32,4.17c0.11,1.04,0.22,2.11,0.32,4.23c0.1,2.12,0.08,3.2,0.06,4.25c-0.02,1.03-0.04,2.09,0.06,4.17
		c0.03,0.57-0.15,1.12-0.49,1.55c-0.37,0.46-0.89,0.74-1.47,0.76l0,0c-2,0.09-2.99,0.15-3.99,0.21c-1,0.06-2,0.12-3.99,0.21
		c-2.01,0.1-3.04,0.09-4.03,0.09c-0.98,0-1.99-0.01-3.97,0.09c-1.99,0.09-2.99,0.16-3.98,0.22c-1,0.07-2,0.13-4,0.23
		C4.01,28.41,3.97,28.42,3.94,28.42z M27.1,7.41c-0.02,0-0.04,0-0.06,0c-1.98,0.09-2.98,0.15-3.97,0.2c-1.01,0.05-2,0.1-4.02,0.2
		c-2.01,0.1-3.03,0.1-4.02,0.1c-0.98,0-1.99,0-3.97,0.1C9.1,8.1,8.15,8.23,7.14,8.37C6.15,8.5,5.13,8.64,3.11,8.74
		c-0.44,0.02-0.85,0.18-1.06,0.4c-0.1,0.11-0.15,0.23-0.14,0.38c0.1,2.09,0.14,3.15,0.18,4.19c0.04,1.06,0.08,2.11,0.18,4.22
		c0.1,2.07,0.24,3.08,0.4,4.14c0.15,1.04,0.31,2.12,0.41,4.25c0.02,0.49,0.33,0.99,0.91,0.94c1.99-0.09,2.99-0.16,3.98-0.22
		c1-0.07,2-0.13,4-0.23c2.01-0.1,3.03-0.09,4.03-0.09c0.98,0,1.99,0.01,3.97-0.09c1.99-0.09,2.98-0.15,3.97-0.21
		c1-0.06,2-0.12,4-0.21c0.31-0.02,0.51-0.19,0.63-0.33c0.17-0.21,0.25-0.5,0.24-0.78c-0.1-2.12-0.08-3.2-0.06-4.25
		c0.02-1.03,0.04-2.09-0.06-4.17c-0.1-2.09-0.21-3.14-0.32-4.17c-0.11-1.04-0.22-2.11-0.32-4.23c-0.01-0.26-0.11-0.49-0.3-0.64
		C27.59,7.49,27.36,7.41,27.1,7.41z M27.97,26.79L27.97,26.79L27.97,26.79z"/>
	<path class="st0" d="M6.38,12.81c-0.35,0-0.64-0.27-0.66-0.63C5.41,5.56,8.83,1.11,14.44,0.84c2.81-0.14,5.65,0.84,7.8,2.66
		c2.29,1.94,3.63,4.69,3.77,7.72c0.02,0.36-0.26,0.67-0.63,0.69c-0.36,0.02-0.67-0.26-0.69-0.63c-0.13-2.67-1.3-5.08-3.31-6.78
		c-1.9-1.61-4.4-2.46-6.89-2.35C9.62,2.38,6.76,6.2,7.04,12.12c0.02,0.36-0.26,0.67-0.63,0.69C6.41,12.81,6.4,12.81,6.38,12.81z"/>
</g>
</svg>
