<?xml version="1.0" encoding="UTF-8"?>
<svg id="Calque_1" data-name="Calque 1" xmlns="http://www.w3.org/2000/svg" viewBox="0 0 60 60">
  <defs>
    <style>
      .cls-1 {
        fill: none;
        stroke: #00a193;
        stroke-miterlimit: 10;
        stroke-width: .96px;
      }
    </style>
  </defs>
  <path class="cls-1" d="M53.62,20.1c.04.06.08.12.12.18,1.2,7.06-.48,14.55-5.65,19.72-2.16,2.17-5.22,2.91-8.18,3.01-1.41.05-2.83-.19-4.2-.48-.93-.2-1.8-.82-2.75-.89-2.93-.2-7.15-.65-8.38,2.79-.6,1.68-.53,4.07-.65,5.84-.21,3.04-1.56,5.74-3.39,8.08-1.72,2.19-4.22,1.5-4.45-1.4-.11-1.47.33-3.15.61-4.56.55-2.79,1.56-5.51,2.21-8.29,1.22-5.21,1.83-10.46,2.66-15.74.18-1.16.3-2.33.4-3.5,1.28-4.09-.52-9.93,4.57-11.69,1.83-.64,4.76.02,5.47,2.17.36,1.09.05,2.41-.23,3.46-.56,2.07-1.03,4.06-1.19,6.2-.19,2.59-1.26,6.49.59,8.77,1.73,2.14,4.5,1.67,6.86.91,2.42-.78,4.35-2.95,5.3-5.23,1.28-3.08,3.05-7.02,2.6-10.45-.93-6.98-5.84-12.71-12.93-13.67-6.76-.91-15.07,1.19-17.37,8.41-1.06,3.33-.51,6.86,0,10.21.33,2.17,1.34,8.19-2.8,7.25-2.59-.59-3.77-4.45-4.32-6.6-1.16-4.56-.06-8.29,1.59-12.52,2.02-5.18,5.74-8.15,10.92-9.97C29.59-.89,41.26.46,47.64,7.47c3.09,3.39,5.14,7.73,6,12.28-.07.09-.09.22-.02.35Z"/>
</svg>