<?xml version="1.0" encoding="UTF-8"?>
<svg id="Calque_1" data-name="Calque 1" xmlns="http://www.w3.org/2000/svg" viewBox="0 0 60 60">
  <defs>
    <style>
      .cls-1 {
        fill: #00a193;
        stroke-width: 0px;
      }
    </style>
  </defs>
  <path class="cls-1" d="M41.98,30.3c-3.47-2.18-6.87-5.01-10.1-7.54-2.22-1.74-4.13-3.68-6.85-4.61-.36-.12-.71.19-.74.54h0s0,.02,0,.02c0,0,0,0,0,0,0,.1,0,.2,0,.3-.44,1.65-.4,3.59-.36,5.45-.26,2.75-.55,5.51-.42,8.28,0,.09.04.16.08.21-.15,3.1-.24,6.19-.19,9.32.01.79,1.05,1.05,1.46.4.66-1.04,1.51-1.83,2.46-2.47l.19-.13c2.15-1.4,4.8-2.13,7.02-3.41,2.32-1.34,5.06-2.94,7.01-4.88.17,0,.3-.16.32-.33.07-.08.16-.15.23-.23.26-.29.21-.71-.12-.92ZM25.28,39.96v-19.43l12.92,8.52c.39.3.78.58,1.18.85.06.06.11.12.17.18.1.19.21.29.33.34.06.06.12.13.18.19l-10.23,6.75c-1.63.73-3.21,1.49-4.55,2.6Z"/>
  <path class="cls-1" d="M59.81,34.33v-.36c0-.26,0-.52,0-.77.05-3.39.4-7.57,0-11.41v-1.77c0-5.02-4.08-9.1-9.1-9.1h-23.33c-5.22-.4-10.41-.63-15.68,0h-1.32c-4.46,0-8.17,3.23-8.94,7.47-.42,1.14-.72,2.38-.91,3.71-.87,6.08-.68,13.59.76,20.09v.89c0,4.39,3.13,8.07,7.27,8.91,1.24.3,2.59.43,3.98.47,7.62.21,15.24-.07,22.88.25,4.2.18,8.33.09,12.53-.07,2.52-.1,5.45.08,7.64-1.43,1.37-.95,2.32-2.16,2.97-3.53.79-1.35,1.26-2.92,1.26-4.6v-.57c.24-2.75.03-5.65,0-8.19ZM58.42,40.77c-.17,6.3-2.54,9.99-9.15,10.36-.43.02-.87.04-1.31.06h-13.46c-5.07-.15-10.17-.25-15.23,0h-8.9c-.81,0-1.59-.12-2.32-.34-.29-.11-.59-.23-.87-.38-3.78-2-4.53-7.24-4.92-11.58v-18.41c1.07-4.65,3.73-7.67,9.31-8.33.91-.11,1.83-.18,2.74-.23h6.03c5.01.27,10.03.82,15.05.84,4.43.01,8.88-.07,13.31.21,5.1.32,8.25,1.34,9.62,6.45.2.75.35,1.51.48,2.29v12.81c-.17,2.14-.34,4.25-.4,6.27Z"/>
</svg>