<?xml version="1.0" encoding="utf-8"?>
<!-- Generator: Adobe Illustrator 28.2.0, SVG Export Plug-In . SVG Version: 6.00 Build 0)  -->
<svg version="1.1" id="Calque_1" xmlns="http://www.w3.org/2000/svg" xmlns:xlink="http://www.w3.org/1999/xlink" x="0px" y="0px"
	 viewBox="0 0 27.57 31.07" style="enable-background:new 0 0 27.57 31.07;" xml:space="preserve">
<style type="text/css">
	.st0{fill:#00A194;}
</style>
<g>
	<path class="st0" d="M14.11,29.91c-6.22,0-12.5-3.12-12.5-10.08c0-6.26,5.37-10.97,12.5-10.97c6.28,0,12.78,4.1,12.78,10.97
		C26.88,26.75,20.26,29.91,14.11,29.91z M14.11,10.52c-5.25,0-10.83,3.26-10.83,9.31c0,6.21,5.84,8.41,10.83,8.41
		c5.53,0,11.11-2.6,11.11-8.41C25.22,14,19.57,10.52,14.11,10.52z"/>
	<path class="st0" d="M10.17,19.01c-0.37,0-0.67-0.29-0.68-0.66c-0.02-0.69,0.07-1.06,0.14-1.38c0.07-0.28,0.12-0.52,0.11-1.03
		c-0.01-0.38,0.29-0.69,0.66-0.7c0.39,0,0.69,0.29,0.7,0.66c0.02,0.69-0.07,1.06-0.14,1.38c-0.07,0.28-0.12,0.52-0.11,1.03
		c0.01,0.38-0.29,0.69-0.66,0.7C10.18,19.01,10.17,19.01,10.17,19.01z"/>
	<path class="st0" d="M16.83,20.41c-0.38,0-0.68-0.31-0.68-0.68c0-0.87-0.02-1.3-0.05-1.73c-0.03-0.45-0.05-0.9-0.05-1.81
		c0-0.38,0.3-0.68,0.68-0.68c0.38,0,0.68,0.31,0.68,0.68c0,0.87,0.02,1.3,0.05,1.73c0.03,0.45,0.05,0.9,0.05,1.81
		C17.51,20.1,17.21,20.41,16.83,20.41z"/>
	<path class="st0" d="M14.62,26.97c-0.27,0-0.54-0.02-0.82-0.06c-3.62-0.51-5.82-4.25-5.84-4.29c-0.18-0.33-0.06-0.75,0.27-0.93
		c0.33-0.18,0.74-0.06,0.93,0.27c0.03,0.05,1.97,3.2,4.86,3.6c1.66,0.23,3.36-0.52,5.05-2.21c0.27-0.27,0.7-0.27,0.97,0
		c0.27,0.27,0.27,0.7,0,0.97C18.28,26.08,16.46,26.97,14.62,26.97z"/>
	<path class="st0" d="M5.59,13.33c-0.23,0-0.46-0.13-0.56-0.35c-0.43-0.91-0.71-1.32-1-1.75c-0.3-0.45-0.62-0.92-1.09-1.92
		c-0.15-0.31-0.01-0.68,0.3-0.83c0.31-0.15,0.68-0.02,0.83,0.3c0.43,0.91,0.71,1.32,1,1.75c0.3,0.45,0.62,0.92,1.09,1.91
		c0.15,0.31,0.01,0.68-0.3,0.83C5.77,13.31,5.68,13.33,5.59,13.33z"/>
	<path class="st0" d="M12.99,9.2c-0.02,0-0.03,0-0.05,0c-0.34-0.03-0.6-0.33-0.57-0.67c0.1-1.24,0.16-1.85,0.21-2.47
		c0.05-0.6,0.11-1.21,0.21-2.41c0.03-0.34,0.33-0.6,0.67-0.57c0.34,0.03,0.6,0.33,0.57,0.67c-0.1,1.2-0.15,1.81-0.21,2.42
		c-0.06,0.62-0.11,1.22-0.21,2.46C13.58,8.96,13.31,9.2,12.99,9.2z"/>
	<path class="st0" d="M21.67,11.84c-0.13,0-0.26-0.04-0.36-0.13c-0.23-0.2-0.26-0.55-0.06-0.79c0.8-0.94,1.21-1.4,1.62-1.87
		c0.4-0.46,0.81-0.92,1.61-1.86c0.2-0.23,0.55-0.26,0.79-0.06c0.23,0.2,0.26,0.55,0.06,0.79c-0.8,0.94-1.21,1.4-1.62,1.87
		c-0.4,0.46-0.81,0.92-1.61,1.86C21.98,11.77,21.82,11.84,21.67,11.84z"/>
	<path class="st0" d="M18.67,10.43c-0.06,0-0.13-0.01-0.19-0.03c-0.33-0.1-0.51-0.45-0.4-0.78c0.27-0.83,0.32-1.26,0.37-1.71
		c0.06-0.49,0.12-1,0.42-1.94c0.1-0.33,0.46-0.51,0.78-0.4c0.33,0.1,0.51,0.45,0.4,0.78c-0.27,0.83-0.32,1.26-0.37,1.71
		c-0.06,0.49-0.12,1-0.42,1.94C19.18,10.26,18.93,10.43,18.67,10.43z"/>
	<path class="st0" d="M9.35,10.2c-0.28,0-0.53-0.19-0.6-0.47C8.59,9.07,8.49,8.75,8.39,8.42C8.3,8.09,8.2,7.75,8.03,7.08
		C7.94,6.74,8.15,6.41,8.48,6.32c0.34-0.08,0.67,0.12,0.75,0.45c0.16,0.65,0.26,0.98,0.35,1.3c0.1,0.34,0.2,0.67,0.37,1.36
		c0.08,0.33-0.12,0.67-0.45,0.75C9.45,10.2,9.4,10.2,9.35,10.2z"/>
</g>
</svg>
