<?xml version="1.0" encoding="utf-8"?>
<!-- Generator: Adobe Illustrator 28.2.0, SVG Export Plug-In . SVG Version: 6.00 Build 0)  -->
<svg version="1.1" id="Calque_1" xmlns="http://www.w3.org/2000/svg" xmlns:xlink="http://www.w3.org/1999/xlink" x="0px" y="0px"
	 viewBox="0 0 28.32 39.22" style="enable-background:new 0 0 28.32 39.22;" xml:space="preserve">
<style type="text/css">
	.st0{fill:#00A194;}
</style>
<path class="st0" d="M27.16,7.44l-0.01-0.02c0.51-1.62,0.73-3.03,0.5-4.08c-0.2-0.93-0.71-1.64-1.49-2.04
	c-1.25-0.65-2.53-0.72-3.83-0.2c-4.21,1.69-7.38,9.35-8.72,13.14c-1.72-1.59-5.2-4.39-8.39-4.39c-0.06,0-0.12,0-0.18,0
	c-0.88,0.03-1.67,0.29-2.38,0.74L2.65,10.6l-0.01,0.03c-0.37,0.24-0.72,0.51-1.03,0.86c-0.78,0.86-1.13,1.95-1.03,3.23
	c0.32,4.23,5.74,10.26,11.03,15.23c-1.45,1.96-2.76,3.66-3.77,4.95c-0.3,0.37-0.23,0.92,0.14,1.21c0.37,0.3,0.92,0.23,1.21-0.14
	c0.49-0.62,1.88-2.39,3.7-4.83c2.98,2.72,5.77,5.02,7.41,6.37l0.93,0.77c0.16,0.14,0.36,0.2,0.56,0.2c0.25,0,0.49-0.1,0.66-0.31
	c0.31-0.37,0.26-0.91-0.1-1.22l-0.94-0.78c-2.79-2.3-5.28-4.45-7.46-6.44c4.66-6.36,11.21-15.96,13.2-22.23L27.16,7.44z"/>
</svg>
