<?xml version="1.0" encoding="UTF-8"?>
<svg id="Calque_1" data-name="Calque 1" xmlns="http://www.w3.org/2000/svg" viewBox="0 0 60 60">
  <defs>
    <style>
      .cls-1 {
        fill: #00a193;
        stroke-width: 0px;
      }
    </style>
  </defs>
  <path class="cls-1" d="M59.96,17.44l-.02-.35c-.03-.7-.57-1.3-1.31-1.46h-.02c-1.99-.42-3.98-.79-5.94-1.15-5.91-1.09-11.89-1.89-17.89-2.38-6.11-.5-12.26-.68-18.39-.55-3.79.08-7.79.14-11.68.53h-.12c-.69.09-1.26.55-1.43,1.17l-.13.46C1.44,19.74.84,26.15.37,32.24.11,35.57.01,38.91.01,42.25.01,43.25,0,44.28,0,45.31c0,.74.58,1.38,1.37,1.52l.3.05c9.89,1.7,20.3,2.02,30.21,2.09,7.57.05,15.32-.12,22.96-.85l.58-.06c.71-.07,1.3-.56,1.46-1.2l.13-.52c1.02-4.4,1.59-8.96,2.11-13.35.6-5.13,1-10.36.83-15.55ZM5.96,13.5c3.31-.26,6.62-.58,9.92-.66,5.97-.15,11.94.01,17.88.47,6.05.46,12.08,1.24,18.04,2.32,1.79.33,3.57.72,5.34,1.13.38.09.71.29.95.55-3.32,3.47-7.19,6.4-11.48,8.82-4.72,2.66-10.38,5.55-15.92,6.23-6.35.78-10.88-4.14-15.12-7.77-3.88-3.32-7.37-6.87-10.76-10.6.3-.27.7-.46,1.14-.49ZM1.53,43.61c-.01-.48-.03-.96-.03-1.43,0-3.53.14-7.07.41-10.59.43-5.61,1.48-11.1,2.37-16.63,0-.06.03-.11.04-.16,3.14,4.48,7.53,8.22,11.75,11.81,1.5,1.28,3.03,2.66,4.66,3.86-3.57,2.07-7.01,4.34-10.4,6.66-2.94,2.01-6.24,4.03-8.8,6.49ZM53.79,46.61c-7.27.61-14.54,1.09-21.91,1.05-9.68-.06-19.14-1.11-28.69-2.05-.69-.07-1.27-.48-1.52-1.05,3.43-1.92,6.45-4.56,9.68-6.76,3.33-2.27,6.76-4.4,10.15-6.59.05-.03.09-.08.12-.12,2.39,1.61,5.04,2.74,8.19,2.57,3.04-.16,6.19-1.15,9.19-2.41,2.87,2.38,5.8,4.66,8.49,7.23,2.58,2.47,4.86,5.15,7.22,7.8-.26.18-.57.29-.91.32ZM57.79,32.02c-.49,4.48-1.42,8.84-2.34,13.21-.01.07-.04.13-.06.2-3.97-5.57-9.49-10.82-15.41-14.59,2.02-.9,3.96-1.9,5.73-2.84,4.78-2.53,9.14-5.64,12.84-9.41-.12,4.48-.27,8.95-.76,13.43Z"/>
</svg>