<?xml version="1.0" encoding="UTF-8"?>
<svg id="Calque_1" data-name="Calque 1" xmlns="http://www.w3.org/2000/svg" viewBox="0 0 60 60">
  <defs>
    <style>
      .cls-1 {
        fill: #00a193;
        stroke-width: 0px;
      }
    </style>
  </defs>
  <path class="cls-1" d="M30.67,14.33c-1.02-.08-2.04-.06-3.04.05,0,0,0,0,0,0-.31.04-.62.08-.93.13-.15.03-.31.06-.46.09-.99.21-1.97.52-2.91.94-.05.02-.1.04-.15.07-.09.03-.18.07-.28.11-.17.07-.33.15-.5.22-1.87.91-3.48,2.44-4.76,4.3-.96,1.4-1.74,2.99-2.31,4.65-.22.62-.4,1.25-.56,1.89-.11.45-.2.9-.28,1.35-.08.44-.14.89-.19,1.33-.07.68-.1,1.36-.1,2.01,0,.32.02.64.04.95.04.47.09.93.18,1.37.02.1.04.2.06.3.02.1.04.2.06.3.14.57.31,1.13.51,1.67.06.16.14.31.21.47.11.26.21.52.33.77.09.18.17.36.27.54.21.4.43.8.68,1.17.09.14.2.28.3.42.18.26.37.52.57.77.12.15.25.3.38.45.21.25.43.48.65.72.19.2.39.38.58.57.44.41.91.8,1.39,1.16.13.1.27.2.4.3.46.33.94.63,1.44.91.16.09.31.19.47.27.6.31,1.21.58,1.84.82.23.09.46.17.7.25,1.02.35,2.06.6,3.13.76.1.01.2.03.3.05.4.05.81.08,1.21.11.21.01.41.03.62.04.05,0,.1,0,.15,0,.19,0,.38-.02.57-.02.49,0,.98-.04,1.47-.09.49-.05.97-.12,1.46-.21.16-.03.32-.08.48-.12.23-.05.46-.11.69-.17.11-.03.23-.05.34-.08.42-.13.82-.28,1.21-.44,3.09-1.29,5.51-3.74,7.09-6.7.26-.5.5-1,.72-1.52.45-1.09.8-2.22,1.03-3.38.1-.48.17-.97.23-1.46.06-.54.1-1.08.12-1.63,0-.28,0-.56,0-.84-.01-.44-.04-.89-.08-1.33-.02-.22-.05-.43-.08-.64-.07-.52-.17-1.03-.3-1.54-.05-.21-.11-.43-.17-.64-.08-.28-.17-.56-.27-.83-.06-.17-.12-.33-.18-.49-.11-.26-.22-.52-.34-.78-.15-.31-.31-.62-.48-.92-.04-.08-.09-.16-.14-.23-.2-.35-.42-.69-.64-1.02-.14-.21-.29-.41-.44-.6-.25-.32-.51-.63-.78-.93-.21-.24-.43-.47-.66-.69-.2-.19-.4-.38-.6-.57-.28-.25-.56-.49-.86-.72-.45-.35-.92-.69-1.41-1-.23-.15-.46-.29-.7-.42-.52-.3-1.06-.57-1.61-.82-.22-.1-.44-.19-.66-.28-.51-.2-1.03-.38-1.56-.54-.39-.11-.77-.22-1.17-.3-.25-.06-.5-.11-.76-.15-.33-.06-.67-.1-1.01-.14-.18-.02-.36-.04-.54-.05ZM35.93,44.53c-.35.13-.7.27-1.07.37-.19.05-.39.09-.59.13-.27.06-.53.13-.8.18-7.26,1.28-15.05-2.84-17.47-9.98-.68-2.01-.79-4.15-.48-6.26.04-.27.08-.55.14-.82.09-.46.21-.92.35-1.38.17-.59.37-1.18.61-1.75.34-.83.76-1.64,1.22-2.41.78-1.3,1.71-2.51,2.76-3.58.84-.84,1.74-1.59,2.71-2.23,2.45-1.21,5.21-1.57,7.9-1.23.23.03.46.06.69.1.41.07.82.16,1.22.26.53.13,1.06.29,1.57.48.22.08.44.17.66.26.57.24,1.14.5,1.68.8.24.13.48.27.72.42.49.3.96.62,1.41.97.3.23.58.47.86.72.22.19.43.39.64.6.24.23.47.48.69.73.06.07.13.14.19.22,1.05,1.23,1.89,2.64,2.46,4.19,2.05,5.63.34,12.61-3.99,16.67,0,0,0,0-.01,0-.05.05-.12.09-.17.14-.54.49-1.12.92-1.73,1.31-.24.15-.47.3-.72.43-.23.13-.47.24-.71.35-.25.11-.49.22-.75.32Z"/>
  <path class="cls-1" d="M37.69,24.84c-2.94-4.23-8.94-5.83-13.07-2.77-4.31,1.7-4.82,9.16-3.29,12.96,0,.02.01.04.02.06.04.1.08.2.12.3.08.17.18.33.26.5.09.17.19.35.29.52.17.27.35.53.55.78.14.18.29.34.44.5.45.49.95.91,1.49,1.28.12.08.24.16.37.23.51.31,1.06.57,1.62.77.17.06.34.11.51.16.24.07.48.13.72.18.22.05.44.09.66.12.54.08,1.1.12,1.65.1.31,0,.63-.03.94-.07.15-.02.29-.05.44-.07.91-.15,1.8-.42,2.65-.82.23-.11.46-.22.69-.35,1.01-.57,1.85-1.31,2.54-2.15,2.75-3.37,2.98-8.5.39-12.23ZM23.71,23.69c.71-.5,1.45-.93,2.21-1.28.32-.15.65-.28.97-.4.77-.28,1.54-.47,2.31-.56.34-.04.69-.06,1.03-.06.76,0,1.51.09,2.23.31.3.09.59.2.88.32.48.22.95.5,1.4.83.28.21.55.44.82.69.28.27.55.57.81.9.21.27.42.56.62.87,0,0,0,.01.01.02.18.28.33.57.48.86.15.3.28.61.4.93.19.51.33,1.02.44,1.55.03.13.05.26.07.4.07.43.11.87.12,1.3,0,.25,0,.49,0,.74-.03.6-.11,1.19-.24,1.76-.12.49-.26.98-.46,1.44-.61,1.47-1.63,2.77-3.04,3.71-.16.11-.32.22-.5.32-3.88,2.2-9.01,1.29-11.43-2.61-.01-.02-.03-.04-.04-.06,0,0,0,0,0,0-.1-.16-.18-.33-.27-.5-.13-.26-.25-.53-.36-.82-.05-.14-.1-.29-.15-.44-.16-.5-.29-1.03-.38-1.58-.03-.16-.05-.33-.07-.49-.05-.41-.09-.81-.1-1.23,0-.13,0-.25,0-.38,0-1.66.31-3.33.96-4.77.04-.08.07-.17.11-.25.2-.4.42-.77.68-1.12.09-.12.47-.36.51-.38Z"/>
  <path class="cls-1" d="M42.4,15.87c.46,1.79,2.07,3.12,3.96,2.71,2.12-.46,3.76-2.55,2.62-4.65-1-1.84-3.48-2.61-5.27-1.51-1.32.46-1.65,2.1-1.31,3.45ZM46.7,13.31c.29.12.56.3.79.54.17.17.32.35.45.58,0,0,0,.01,0,.02.84,1.51-.61,2.94-2.12,3.07-.37.03-.71-.05-1.02-.2-.25-.12-.47-.29-.66-.5-.18-.19-.33-.41-.46-.66-.18-.35-.29-.73-.33-1.12-.05-.53.55-1.48.68-1.54.46-.22.95-.35,1.43-.38.42-.02.84.02,1.22.18Z"/>
  <path class="cls-1" d="M21.28,6.49c-.1,0-.18.02-.25.05-4.1.12-8.12.92-11.04,4.1-.72.79-1.31,1.63-1.79,2.51-.03.05-.05.1-.08.15-.48.91-.85,1.86-1.13,2.84-.15.51-.27,1.03-.37,1.56-.25,1.25-.39,2.52-.47,3.81-.02.31-.04.61-.05.92-.02.37-.03.74-.04,1.12-.01.43-.02.86-.03,1.3,0,.54-.02,1.08-.02,1.62,0,.14,0,.29-.01.43,0,.29-.01.58-.03.88-.03.8-.08,1.62-.14,2.45-.03.39-.06.79-.08,1.19-.06.77-.11,1.54-.16,2.32-.03.5-.07,1.01-.09,1.51-.03.59-.06,1.19-.08,1.78-.01.47-.02.94-.03,1.41,0,.4,0,.79.01,1.18,0,.35.02.7.04,1.05.04.72.1,1.44.19,2.14.02.13.04.25.05.38.05.36.11.72.18,1.08.05.24.09.48.14.71.11.46.23.91.37,1.35.08.25.17.49.26.73.05.14.1.29.16.44.1.24.21.47.32.7.12.23.25.46.38.67.19.3.39.59.6.86.13.16.26.3.4.45.32.35.67.67,1.05.97.19.15.38.3.58.43.34.23.69.44,1.06.63.2.1.4.2.6.29.53.24,1.09.45,1.65.63.23.07.46.14.69.2.52.13,1.05.25,1.59.33.32.05.64.09.96.13.48.05.96.09,1.43.11.56.02,1.12.03,1.68.05.21,0,.42.01.63.02.79.02,1.58.03,2.37.04.26,0,.52,0,.78,0,.98,0,1.97,0,2.96-.02.25,0,.5,0,.75,0,.28,0,.57-.02.85-.02.55-.01,1.1-.03,1.64-.05.09,0,.18,0,.27,0,.25,0,.49-.02.74-.03.7-.03,1.41-.06,2.11-.09.09,0,.19,0,.28-.01,3.13-.15,6.25-.35,9.36-.56,2.75-.19,5.17-.91,7.08-2.34,1.19-.9,2.18-2.07,2.94-3.57.04-.07.07-.14.11-.21.03-.07.07-.14.1-.22.12-.26.23-.53.33-.8.36-.96.63-1.97.85-3,.09-.41.16-.82.23-1.24.04-.27.08-.54.12-.81.11-.84.18-1.69.23-2.55.01-.18.02-.36.03-.54.05-1.09.06-2.18.06-3.27,0-.3,0-.59,0-.88-.01-.9-.04-1.79-.07-2.68,0-.23-.01-.47-.02-.7-.03-.8-.05-1.6-.07-2.38,0-.2,0-.4-.01-.59,0-.31-.01-.61-.01-.91,0-.61,0-1.24,0-1.87,0-.27,0-.54,0-.81,0-.43,0-.86-.01-1.3,0-.23-.01-.47-.02-.71-.01-.33-.03-.66-.04-1,0-.16-.02-.31-.03-.47-.04-.64-.1-1.28-.19-1.91-.02-.13-.04-.27-.06-.4-.01-.08-.02-.15-.04-.23-.39-2.39-1.17-4.66-2.72-6.55-2.03-2.47-4.72-3.87-7.73-4.63-.13-.03-.27-.07-.4-.1-.25-.06-.51-.11-.77-.16-.49-.09-.98-.17-1.48-.24-.23-.03-.46-.06-.69-.09-1.1-.12-2.23-.18-3.37-.2-.45,0-.9,0-1.35,0-.7,0-1.4.02-2.1.05-.14,0-.28,0-.41.02-.2,0-.4.02-.6.03-.68.03-1.35.07-2.02.12-.32.02-.63.04-.94.06-.21.01-.43.03-.64.04-.25.02-.5.03-.75.05-.43.03-.85.06-1.27.09-.35.02-.7.04-1.05.07-.25.01-.5.03-.74.04-.26.01-.51.02-.76.03-.31.01-.62.02-.92.03-.69.02-1.35.02-1.99,0ZM11.81,51.62c-.12-.06-.25-.12-.37-.19-.27-.15-.53-.31-.77-.47-.2-.14-.39-.29-.57-.43-.37-.3-.7-.63-.99-.98-.13-.15-.26-.31-.37-.46-.21-.29-.4-.59-.57-.9-.12-.22-.24-.45-.34-.68-.17-.38-.32-.77-.44-1.17-.08-.26-.15-.52-.21-.78-.11-.45-.19-.92-.26-1.39-.03-.23-.06-.47-.09-.7-.04-.39-.08-.79-.11-1.19,0-.14-.02-.28-.02-.42-.04-.68-.06-1.35-.08-2.03,0-.05,0-.09,0-.14,0-.36,0-.73,0-1.09,0-.42,0-.84,0-1.26,0-.51.02-1.02.03-1.53.02-.53.03-1.06.05-1.6.02-.51.04-1.02.06-1.54,0-.13.01-.25.02-.38.06-1.44.13-2.87.16-4.31.09-3.51-.11-7.09.68-10.54.1-.44.22-.87.36-1.29.15-.47.32-.92.52-1.37,1.35-3.08,3.76-5.63,7.07-6.65.24-.07.47-.14.72-.2.23-.05.46-.09.69-.12,1.14-.15,2.23-.06,3.34-.02.19,0,.39.01.58.02.46,0,1.58-.09,1.67-.1.02,0,.04,0,.06,0,.26,0,.51.01.77.01.05,0,.09,0,.14,0,.24,0,.49,0,.74,0,.24,0,.48,0,.73-.02.35-.01.71-.03,1.07-.04.4-.02.8-.04,1.2-.07.23-.01.46-.03.69-.04.31-.02.62-.04.93-.06.69-.05,1.38-.1,2.08-.15,3.33-.23,6.74-.41,9.92,0,.12.02.24.03.37.05.29.04.58.09.86.14.71.13,1.4.29,2.07.5.26.08.52.16.77.25.49.17.98.37,1.45.59.21.1.42.21.63.32.56.3,1.11.65,1.63,1.04.23.17.46.36.68.55.23.2.46.41.69.63.06.06.11.13.17.19.16.17.32.35.47.54.38.48.72.99,1,1.54.08.16.16.32.23.48.02.05.05.1.07.14.4.9.7,1.88.92,2.9.02.08.03.17.05.26.09.44.16.89.22,1.35.02.15.04.29.05.44,0,.01,0,.03,0,.04.33,3.04.15,6.3,0,9.22,0,.05,0,.09,0,.14-.01.23-.02.45-.03.68-.04.89-.07,1.73-.08,2.52,0,.02,0,.04,0,.05,0,.23,0,.46,0,.7,0,.82.01,1.66.01,2.53,0,.31,0,.62,0,.94,0,1.07-.03,2.15-.09,3.23-.01.2-.02.39-.04.59-.07.89-.17,1.76-.32,2.62-.05.3-.11.6-.17.89-.34,1.54-.86,2.97-1.65,4.22-.87,1.38-2.07,2.53-3.71,3.33-.52.25-1.08.47-1.69.65-.69.2-1.4.34-2.11.45-.43.06-.86.12-1.29.16-.52.05-1.05.09-1.57.11-.3.01-.6.03-.89.04-1.27.04-2.53.07-3.77.15-.26.02-.52.03-.77.05-.29.03-.58.04-.88.07-.74.06-1.48.12-2.22.17,0,0,0,0-.01,0-.24.01-.47.02-.7.04-.05,0-.11,0-.16,0-.61.03-1.23.07-1.84.09-2.12.08-4.24.12-6.39.1-3.2-.03-6.64.21-9.71-.86-.23-.08-.45-.17-.68-.26-.21-.09-.41-.18-.61-.28Z"/>
  <path class="cls-1" d="M59.22,41.52c.11-1.31.2-2.64.27-3.97.02-.28.03-.55.04-.83.01-.21.02-.42.03-.62.1-2.04.15-4.08.15-6.13,0-.26,0-.52,0-.78,0-1.13-.03-2.26-.08-3.39,0-.2-.02-.4-.03-.6-.03-.64-.07-1.28-.11-1.91-.16-2.29-.39-4.56-.74-6.79-1.07-6.85-5.95-12.12-12.34-14.66-.42-.17-.85-.31-1.29-.44-.06-.02-.12-.04-.18-.06-.9-.27-1.81-.46-2.73-.61-.32-.05-.65-.1-.97-.14-.59-.07-1.18-.12-1.78-.16-.28-.02-.56-.04-.84-.05-.77-.03-1.55-.03-2.33-.01-.33,0-.66,0-.99.02-.12,0-.25.01-.37.01-.09,0-.17,0-.26.01-.17,0-.33.01-.5.02-.14,0-.28,0-.42.02-.26.01-.51.02-.76.04-.5.02-1,.05-1.5.07-.19,0-.39.02-.58.03-.09,0-.17,0-.26.01-.27.01-.54.03-.81.04-.63.03-1.27.07-1.9.11-.32.02-.63.03-.95.05-.93.06-1.85.13-2.78.21-.18.01-.36.03-.54.04-1.34.12-2.68.25-4.01.42-3.35.43-7.26,1.14-10.55,2.7-.3.14-.6.29-.89.45-1.07.58-2.05,1.27-2.9,2.08-.1.1-.2.2-.3.3-.43.44-.82.92-1.18,1.44-.52.61-.99,1.27-1.39,1.99-.37.65-.69,1.36-.95,2.11-.17.5-.32,1-.45,1.5-.13.49-.24.99-.33,1.48-.06.29-.1.59-.15.88-.06.41-.12.82-.16,1.22-.07.69-.11,1.38-.12,2.07,0,.21-.01.42-.01.63,0,.62,0,1.24.03,1.85.02.44.05.88.08,1.32.08,1,.18,1.99.3,2.99.04.34.08.69.13,1.03.03.24.06.48.1.73.06.42.11.84.17,1.26.07.53.14,1.07.21,1.6.01.09.02.18.04.28.31,2.42.57,4.85.56,7.29-.02,3.09,0,6.19.63,9.02.03.13.05.26.09.39.12.51.28,1,.45,1.49.08.23.17.47.26.69.16.39.34.78.54,1.15.13.24.27.47.42.7.18.29.38.57.59.85.12.16.25.32.38.48.33.39.7.76,1.09,1.12.19.18.39.35.6.52.2.16.42.31.63.46.1.07.18.14.28.21.09.06.19.11.29.17.48.3.96.58,1.46.84.18.09.36.19.54.28.44.22.89.42,1.34.6.28.11.55.22.83.32.87.32,1.75.58,2.65.8.2.05.4.1.59.14.54.12,1.08.22,1.63.31.25.04.5.07.75.1.84.11,1.7.2,2.55.25.29.02.59.03.88.05.74.03,1.49.04,2.24.03.3,0,.59,0,.89-.01.93-.02,1.86-.07,2.79-.13.03,0,.06,0,.09,0,.32-.02.64-.05.96-.07.65-.05,1.29-.11,1.93-.17.08,0,.16-.01.24-.02,5.16-.47,11.22.28,16.51-.83.16-.03.31-.07.46-.11.63-.15,1.24-.32,1.84-.53.46-.16.91-.33,1.35-.53.38-.17.75-.37,1.1-.58,1.14-.68,2.12-1.53,2.96-2.49.56-.65,1.06-1.35,1.5-2.09.41-.68.77-1.4,1.08-2.14,1.12-2.65,1.69-5.61,1.92-8.38ZM2.07,31.16c-.16-2.21-.52-4.37-.74-6.55-.06-.62-.11-1.24-.14-1.86-.02-.45-.03-.91-.03-1.37,0-.36,0-.72.02-1.08.02-.28.03-.57.05-.86.02-.21.03-.42.05-.63.03-.32.06-.63.1-.95.24-2.1,2.42-7.64,2.73-8.2.34-.49.71-.96,1.14-1.39.88-.91,1.93-1.71,3.05-2.41.38-.23.76-.45,1.16-.67.2-.11.4-.21.6-.31.33-.13.66-.26,1-.37,1.01-.35,2.06-.63,3.13-.87.33-.07.66-.14.99-.21.9-.18,1.8-.33,2.67-.46.3-.04.6-.09.89-.13.85-.12,1.68-.22,2.45-.32.16-.02.33-.04.49-.06.38-.05.76-.1,1.14-.15,1.01-.13,2.02-.26,3.06-.38.1-.01.21-.02.31-.04,4.98-.57,10.2-.93,14.98-.31.68.09,1.35.23,2.03.39.29.07.59.15.88.23.18.05.36.11.53.17.5.16,1,.35,1.5.55.2.08.39.17.58.25.63.28,1.24.6,1.84.94.19.11.38.22.56.33.44.27.87.56,1.29.87.16.12.33.24.49.36.5.38.98.78,1.43,1.2.18.16.34.34.51.51.38.38.75.77,1.09,1.18.14.16.27.32.4.49.38.49.74,1,1.06,1.53.09.14.18.28.27.42.69,1.2,1.23,2.49,1.56,3.84.04.17.08.34.11.51.02.1.04.19.06.29.14.65.26,1.31.37,1.97.01.09.03.18.04.27.05.31.09.63.13.95.02.17.04.35.06.52.05.42.09.85.12,1.27.01.16.03.32.04.49.06.91.1,1.83.13,2.74,0,.16,0,.33,0,.49.01.72.01,1.45,0,2.17,0,.22,0,.45,0,.67-.02,1.11-.05,2.22-.09,3.33,0,.28-.02.56-.03.84-.04,1.24-.09,2.47-.12,3.69,0,.11,0,.21,0,.32,0,.04,0,.08,0,.12-.02.69-.03,1.39-.05,2.1,0,.22-.01.44-.02.67-.03.94-.07,1.9-.14,2.85-.02.25-.04.5-.06.74-.08.93-.19,1.85-.34,2.77-.05.28-.09.57-.15.85-.22,1.13-.52,2.23-.9,3.29-.19.51-.39,1.02-.62,1.52-.36.75-.77,1.48-1.26,2.16-.49.7-1.05,1.36-1.7,1.97-1.25,1.19-2.69,1.95-4.24,2.44-.48.15-.97.28-1.47.39-1,.21-2.02.33-3.07.4-.38.03-.77.05-1.15.06-.82.03-1.64.04-2.46.03-.33,0-.67,0-1,0-.74,0-1.48,0-2.2,0-.51,0-1.02.01-1.52.04,0,0-.01,0-.02,0-.32.01-.64.03-.96.05-.41.02-.82.05-1.23.08-.22.02-.44.03-.66.05-1.09.09-2.2.2-3.32.31-.24.02-.48.05-.72.07-4.6.44-9.3.79-13.62-.19-3.13-.71-6.4-2.35-8.69-4.64-1.71-1.71-2.58-3.79-3.09-6.01,0-.04-.02-.07-.02-.11-.07-.29-.13-.59-.18-.88-.06-.32-.11-.63-.16-.95-.02-.14-.04-.28-.06-.41-.13-.94-.24-1.89-.35-2.84-.06-.53-.11-1.06-.15-1.59-.02-.27-.04-.54-.05-.81-.04-.66-.07-1.32-.09-1.98-.01-.41-.02-.82-.03-1.23-.02-.67-.03-1.35-.05-2.02,0-.37-.02-.75-.03-1.12,0-.06,0-.11,0-.17-.03-.75-.06-1.5-.12-2.25Z"/>
</svg>