<?xml version="1.0" encoding="UTF-8"?>
<svg id="Calque_1" data-name="Calque 1" xmlns="http://www.w3.org/2000/svg" viewBox="0 0 60 60">
  <defs>
    <style>
      .cls-1 {
        fill: #00a193;
        stroke-width: 0px;
      }
    </style>
  </defs>
  <path class="cls-1" d="M39.63,18.73c-1.02.17-2.22.4-3.42.54-.05,0-.11,0-.16,0h-2.74c-1.66-.27-2.86-1.18-2.74-3.48.21-4.23,3.97-4.4,7.31-4.39.95,0,1.74-.77,1.78-1.72.12-2.9.3-5.79.33-8.7,0-.25-.12-.42-.29-.52-.02-.01-.04-.03-.06-.04-.13-.06-.27-.07-.4-.05-4.34-.14-9.13-.66-13.2.67-5.06,1.38-7.5,5.29-8.18,9.47-.18.71-.32,1.43-.43,2.14-.22,1.49.13,3.33-.21,4.75-.33,1.39-1.33,1.73-2.53,1.84l-2.76.29c-.12.09-.2.22-.21.41-.15,3.46-.19,6.91,0,10.37.01.29.24.56.55.55,1.83-.05,3.84-.53,4.97,1.65.39.76.22,3.34.27,4.12.06.85.1,1.7.14,2.55,0,.02,0,.05,0,.07v15.1s0,.08,0,.12c-.08,1.14-.37,2.43-.32,3.62.05,1.03.96,1.81,1.99,1.79,1.51-.03,3.05-.38,4.56-.35,1.83.03,3.63.37,5.45.43.95.03,1.76-.75,1.76-1.7.02-4.62-.45-9.29-.44-13.92,0-2.36-.02-4.72,0-7.07.02-1.66-.39-4.75.69-6.06,1.49-1.8,3.96-.13,5.89-.75.2-.07.38-.21.52-.37l.89-1.03c.09-.11.17-.23.22-.36,1.04-2.6,1.14-7.52,1.5-9.28.09-.47-.27-.8-.72-.72ZM38.09,26.85c-.23,1-.5,1.77-.72,1.97-.53.47-1.15.64-1.81.66h-.22c-1.71-.02-3.64-.87-4.91,0l-.76.94c-.56,1.29-.17,3.37-.17,4.64-.02,3.1.03,6.2.03,9.31,0,2.51.05,5.01.15,7.51v6.45s-.02.04-.03.06h-10.42c-.39-.4-.59-1-.68-1.7v-2.25c.11-1.25.32-2.46.35-3.16.21-5.56.16-11.24-.35-16.81v-4.99h-4.75c-.42-.31-.74-.84-.96-1.49v-6.06c.79-1.87,2.55-1.47,4.21-1.78h1.5v-6.37c.16-2.87.72-5.6,2.79-8.24,1.92-2.44,4.39-3.56,7.1-4.04.57-.06,1.16-.09,1.79-.09l8.46.04v6.62c-.04,1.64.19,1.76-1.3,2.16-1.52.41-3.11-.12-4.68.24h-.03c-1.33,0-2.73.73-2.95,2.7-.68,2-.22,4.61-.28,6.64-.01.39.32.66.68.68,1.63.11,3.25.15,4.88.05.06,0,1.68-.28,2.66-.39h.77c.14.11.23.37.28.75l-.61,5.93ZM17.54,30.37h.1v.08s-.07-.05-.1-.08Z"/>
</svg>