<svg id="Composant_119_1" data-name="Composant 119 – 1" xmlns="http://www.w3.org/2000/svg" width="14.482" height="14.482" viewBox="0 0 14.482 14.482">
  <path id="Tracé_1170" data-name="Tracé 1170" d="M394.611,309.91c-.563,1.053-.35.6-1.155,1.5-.528.588-1.927,1.542-1.817,2.275.067.45,1.328,1.323,1.664,1.629.476.432,1.379.993,1.674,1.569.584,1.141-.369,1.535-1.369,1.19-1.394-.481-2.086-1.63-3.228-2.423-.738-.513-.352-.483-1.057-.043a9.618,9.618,0,0,0-1.343,1.3c-1.124,1.084.363-.185-.876.77-.554.427-1.815,1.013-1.7-.207.081-.889.871-1.384,1.445-1.979.593-.616,1.481-.924,1.511-1.8.033-.962-4.776-4.723-2.992-5.733.689-.39,2.259,1.711,2.719,2.172.3.3,1.4,1.774,1.792,1.8s.56-.247.9-.576a9.385,9.385,0,0,1,1.634-1.379c.471-.357,2.351-1.59,2.2-.06C394.612,309.909,394.652,309.491,394.611,309.91Z" transform="translate(-47.216 -489.932) rotate(45)" fill="#342922"/>
</svg>
