<svg xmlns="http://www.w3.org/2000/svg" xmlns:xlink="http://www.w3.org/1999/xlink" width="12.064" height="11.861" viewBox="0 0 12.064 11.861">
  <defs>
    <clipPath id="clip-path">
      <rect width="12.064" height="11.861" fill="none"/>
    </clipPath>
  </defs>
  <g id="Cross" clip-path="url(#clip-path)">
    <path id="Tracé_1167" data-name="Tracé 1167" d="M396.025,308.5a17.715,17.715,0,0,1-2.569,2.913c-.528.588-1.927,1.542-1.817,2.275.067.45,1.328,1.323,1.664,1.629.476.432,1.379.993,1.674,1.569.584,1.141-.369,1.535-1.369,1.19-1.394-.481-2.086-1.63-3.228-2.423-.738-.513-.352-.483-1.057-.043a9.618,9.618,0,0,0-1.343,1.3,19.442,19.442,0,0,1-2.29,2.185c-.554.427-1.815,1.013-1.7-.207.081-.889.871-1.384,1.445-1.979.593-.616,2.9-2.339,2.925-3.218.033-.962-4.776-4.723-2.992-5.733.689-.39,2.259,1.711,2.719,2.172.3.3,1.4,1.774,1.792,1.8s.56-.247.9-.576a35,35,0,0,1,3.048-2.794c.471-.357,2.351-1.59,2.2-.06C396.026,308.494,396.066,308.077,396.025,308.5Z" transform="translate(-383.98 -307.748)" fill="#342922"/>
  </g>
</svg>
