<svg xmlns="http://www.w3.org/2000/svg" width="39.32" height="30.287" viewBox="0 0 39.32 30.287">
  <g id="Groupe_2796" data-name="Groupe 2796" transform="translate(0)">
    <path id="Tracé_1180" data-name="Tracé 1180" d="M30.047,68.361c-6.317.674-12,1.437-18.356.643a1.111,1.111,0,0,0-.116-.054,1.048,1.048,0,0,1-.771-1.116c.54-.772,1.695-.722,2.5-.66,1.132.087,2.255.076,3.39.065a75.33,75.33,0,0,0,8.824-.608c1.619-.209,3.231-.442,4.838-.733a.728.728,0,0,0,.625-.865.963.963,0,0,0,.02-.159c.089-3.434-.08-6.487.254-9.908.052-.535-1.953-.824-2.365-.851a.871.871,0,0,0-.327-.042c-7.414.43-12.928.161-20.353.248a1.013,1.013,0,0,0-.149-.142,8.92,8.92,0,0,0-3.687-1.605c-1.092-.317-2.209.786-1.123,1.1,4.084,1.186,5.919,4.716,6.7,8.657a30.377,30.377,0,0,1,.444,3.584c.006.075-1.025.879-1.138,1.085a2.065,2.065,0,0,0-.175,1.487c.36,1.51,1.593,2.134,3.014,2.383a3.945,3.945,0,0,0-.595,1.151.83.83,0,0,0-.03.433,2.955,2.955,0,0,0,.827,2.181,3.536,3.536,0,0,0,2.336.844.91.91,0,0,0,.261-.026c.03,0,.059,0,.09-.005a3.224,3.224,0,0,0,2.792-2.936A2.384,2.384,0,0,0,17.41,71c2.405-.039,4.77-.242,7.166-.479a3.162,3.162,0,0,0-.522.987c-.606,1.963,1.3,3.346,3.128,3.444a.911.911,0,0,0,.261-.026c.03,0,.059,0,.09-.005a3.224,3.224,0,0,0,2.792-2.936,2.479,2.479,0,0,0-.765-2c.395-.044.789-.09,1.184-.132C31.857,69.738,31.174,68.241,30.047,68.361ZM29.692,55.8c-.067.776-.417,8.048-.429,8.5q-2.119.367-4.248.62c-.007-.661-.224-8.229-.293-8.94C26.445,55.924,27.97,55.9,29.692,55.8Zm-6.921,0c.067.7.481,8.6.488,9.313-1.648.16-3,.029-4.66.088-.1-.743-1.419-8.557-1.48-9.254Q19.945,55.894,22.771,55.8ZM9.42,56.067c1.981-.024,4.393-.229,6.373-.263.061.7.659,8.975.757,9.689q-2.214.031-4.432-.06A96.638,96.638,0,0,0,9.42,56.067Zm5.24,17.661-.021,0c-.97-.052-1.413-.381-1.405-1.31a1.687,1.687,0,0,1,1.585-1.145c.664.149,1.218.481,1.205,1.247C16.011,73.247,15.279,73.6,14.66,73.728ZM27.2,73.2l-.021,0c-.97-.052-1.413-.381-1.405-1.31a1.687,1.687,0,0,1,1.585-1.145c.664.149,1.218.481,1.205,1.247C28.553,72.719,27.821,73.071,27.2,73.2Z" transform="translate(-2.811 -45.197)" fill="#00a193"/>
    <g id="Composant_119_4" data-name="Composant 119 – 4" transform="translate(26.839)">
      <path id="Tracé_1170" data-name="Tracé 1170" d="M8.311,1.731c-.485.907-.3.519-1,1.292-.455.506-1.66,1.329-1.566,1.961.058.388,1.145,1.14,1.434,1.4.41.373,1.188.856,1.442,1.352.5.984-.318,1.323-1.18,1.026-1.2-.414-1.8-1.4-2.782-2.088-.636-.442-.3-.416-.911-.037A8.29,8.29,0,0,0,2.6,7.757c-.969.934.313-.16-.755.664C1.364,8.79.277,9.295.373,8.243c.07-.766.751-1.192,1.245-1.706.511-.531,1.277-.8,1.3-1.555C2.949,4.153-1.2.912.342.041.936-.3,2.289,1.516,2.686,1.914c.261.261,1.2,1.529,1.545,1.555s.482-.212.776-.5A8.09,8.09,0,0,1,6.415,1.783c.406-.308,2.026-1.371,1.9-.052C8.312,1.73,8.347,1.371,8.311,1.731Z" transform="translate(6.273 0) rotate(45)" fill="#00a193"/>
    </g>
  </g>
</svg>
