<svg xmlns="http://www.w3.org/2000/svg" width="35" height="32.919" viewBox="0 0 35 32.919">
  <g id="Groupe_2814" data-name="Groupe 2814" transform="translate(-514.529 -454.458)">
    <circle id="Ellipse_8" data-name="Ellipse 8" cx="6" cy="6" r="6" transform="translate(526.926 465)" fill="#0ac2b2"/>
    <g id="Groupe_2056" data-name="Groupe 2056" transform="translate(451.088 397.484)">
      <path id="Tracé_1183" data-name="Tracé 1183" d="M79.9,81.078c7.578-1.222,9.1-4.3,9.1-8.873,0-4.658-4.19-8.593-9.15-8.593-4.707,0-8.994,4.551-8.994,9.55A8.079,8.079,0,0,0,73.7,79.323a7.7,7.7,0,0,0,4.994,1.853A7.5,7.5,0,0,0,79.9,81.078Zm7.338-9.344a5.113,5.113,0,0,1-1.3,4.168,8.43,8.43,0,0,1-6.083,3.357,6.92,6.92,0,0,1-6.912-6.912c0-3.986,4.432-7.2,8.1-7.2l.213,0c3.063,0,3.937,1.991,5.146,4.747C86.66,70.51,86.939,71.147,87.237,71.733Z" transform="translate(1.599 1.431)" fill="#00a193"/>
      <path id="Tracé_1184" data-name="Tracé 1184" d="M79,63.713l.085,0a.914.914,0,0,0,.823-.993,4.526,4.526,0,0,1,.075-1.884c.051-.134.115-.261.186-.4.06-.119.118-.239.173-.361a4.835,4.835,0,0,0,.4-2.239.912.912,0,0,0-1.82.114,3.011,3.011,0,0,1-.248,1.388c-.044.1-.091.192-.137.286a5.886,5.886,0,0,0-.261.579,5.986,5.986,0,0,0-.184,2.691A.909.909,0,0,0,79,63.713Z" transform="translate(3.144 0)" fill="#00a193"/>
      <path id="Tracé_1185" data-name="Tracé 1185" d="M84.579,65.089a.908.908,0,0,0,.637-.259,18.2,18.2,0,0,1,2.372-1.956.911.911,0,0,0-.359-1.647.9.9,0,0,0-.68.148,20.024,20.024,0,0,0-2.607,2.15.911.911,0,0,0,.637,1.563Z" transform="translate(4.361 0.914)" fill="#00a193"/>
      <path id="Tracé_1186" data-name="Tracé 1186" d="M86.43,67.47a.912.912,0,0,0,.814,1.321.938.938,0,0,0,.287-.046l1.409-.467,0-.021c.028,0,.081.017.15.034a4.893,4.893,0,0,0,3.282-.362.912.912,0,0,0-.8-1.639,3.148,3.148,0,0,1-2.125.212,1.617,1.617,0,0,0-.556-.064,1.883,1.883,0,0,0-.535.113l-1.4.463A.9.9,0,0,0,86.43,67.47Z" transform="translate(4.935 1.989)" fill="#00a193"/>
      <path id="Tracé_1187" data-name="Tracé 1187" d="M93.423,74.274a.911.911,0,0,0-1.656-.308,1.689,1.689,0,0,1-.665.588,13.684,13.684,0,0,1-2.993-1.836.912.912,0,0,0-1.146,1.419,15.492,15.492,0,0,0,3.412,2.09,1.827,1.827,0,0,0,.581.169c.047,0,.092.006.139.006a1.845,1.845,0,0,0,.793-.2,3.517,3.517,0,0,0,1.408-1.241A.905.905,0,0,0,93.423,74.274Z" transform="translate(4.998 3.351)" fill="#00a193"/>
      <path id="Tracé_1188" data-name="Tracé 1188" d="M88.8,82.39a8.035,8.035,0,0,0-2.093-3.029,7.8,7.8,0,0,1-1.589-2.068.9.9,0,0,0-.509-.485.89.89,0,0,0-.693.019.912.912,0,0,0-.466,1.2,9.262,9.262,0,0,0,1.935,2.588,6.58,6.58,0,0,1,1.678,2.329" transform="translate(4.297 4.263)" fill="#00a193"/>
      <path id="Tracé_1189" data-name="Tracé 1189" d="M79.069,84.745c-.023-1.76-.027-3.535-.012-5.277a.912.912,0,1,0-1.823-.016c-.016,1.921-.01,3.869.018,5.79" transform="translate(2.972 4.651)" fill="#00a193"/>
      <path id="Tracé_1190" data-name="Tracé 1190" d="M72.272,77.541a.9.9,0,0,0-.464.4,3.173,3.173,0,0,1-1.535.387h0a.914.914,0,0,0-.912.9.9.9,0,0,0,.259.648.919.919,0,0,0,.669.275h.033a4.928,4.928,0,0,0,2.652-.784,1.084,1.084,0,0,0,.483-1.309A.912.912,0,0,0,72.272,77.541Z" transform="translate(1.275 4.421)" fill="#00a193"/>
      <path id="Tracé_1191" data-name="Tracé 1191" d="M71.356,73.675a1.09,1.09,0,0,0-.506-1.347,4.3,4.3,0,0,0-1.741-.512,38.687,38.687,0,0,0-4.76-.293.912.912,0,1,0,.007,1.823H64.4a35.421,35.421,0,0,1,4.478.278,3.785,3.785,0,0,1,.853.177.907.907,0,0,0,.779.439A.91.91,0,0,0,71.356,73.675Z" transform="translate(0 3.137)" fill="#00a193"/>
      <path id="Tracé_1192" data-name="Tracé 1192" d="M67.1,65.479a11.966,11.966,0,0,1,1.871,1.447.9.9,0,0,0,.179.582.912.912,0,0,0,1.275.191,1.164,1.164,0,0,0,.38-1.316,1.552,1.552,0,0,0-.393-.585,13.106,13.106,0,0,0-2.347-1.865.911.911,0,1,0-.965,1.546Z" transform="translate(0.695 1.47)" fill="#00a193"/>
      <path id="Tracé_1193" data-name="Tracé 1193" d="M74.139,63.9a.911.911,0,1,0,1.791-.339A5.352,5.352,0,0,0,75.2,61.7a.907.907,0,0,0-.571-.4.893.893,0,0,0-.684.117.915.915,0,0,0-.289,1.257A3.548,3.548,0,0,1,74.139,63.9Z" transform="translate(2.173 0.927)" fill="#00a193"/>
    </g>
  </g>
</svg>
