<svg id="icon_blog" data-name="icon blog" xmlns="http://www.w3.org/2000/svg" width="26.042" height="27.173" viewBox="0 0 26.042 27.173">
  <g id="Groupe_2086" data-name="Groupe 2086" transform="translate(-93.439 1.168)">
    <path id="Tracé_1239" data-name="Tracé 1239" d="M107.981,15.281h4.048c1.945,0,3.153-1.074,3.153-2.8,0-1.749-1.257-2.879-3.2-2.879h-4Zm1.831-1.829c-.358-.358,0-2.025,0-2.025h2.167c1.373,0,1.373.79,1.373,1.05,0,.34,0,.975-1.323.975C112.029,13.452,110.2,13.844,109.812,13.452Z" fill="#00a193"/>
    <path id="Tracé_1240" data-name="Tracé 1240" d="M111.681,2.836s-2.9-.33-3.553.324c-.97.969-.147,5.161-.147,5.161h3.7c1.9,0,3.078-1.047,3.078-2.731S113.579,2.836,111.681,2.836Zm1.248,2.754c0,.337,0,.9-1.248.9h-1.869l.135-1.823h1.734C112.832,4.667,112.929,5.144,112.929,5.59Z" fill="#00a193"/>
    <path id="Tracé_1241" data-name="Tracé 1241" d="M117.312,8.779a4.87,4.87,0,0,0,1.772-3.909c0-3.3-2.584-5.44-6.583-5.44,0,0-8.522-1.345-8.771,0a107.544,107.544,0,0,0-.171,11.065l1.962,1.982L105.415.511l7.086.749c2.977,0,4.754,1.349,4.754,3.61,0,1.539-.835,2.211-1.723,3.451-.259.361-.824,1.113-.507,1.423,1.131,1.1,3.475,1.631,3.475,3.256,0,2.4-2.672,3.882-5.726,3.882h-2.892l1.812,1.83h1.08c4.137,0,6.707-2.17,6.707-5.663A5.171,5.171,0,0,0,117.312,8.779Z" fill="#00a193"/>
  </g>
  <path id="Tracé_1242" data-name="Tracé 1242" d="M112.449,25.133l-1.484-5.357a.885.885,0,0,0-.226-.387L99.46,8.11c-.584-.585-3.792-.585-4.377,0l-.741.742a3.1,3.1,0,0,0,0,4.377L105.62,24.508a.873.873,0,0,0,.389.226s6.046,1.425,6.214,1.257A.885.885,0,0,0,112.449,25.133ZM98.706,9.851l-2.623,2.624-.494-.494a1.333,1.333,0,0,1,0-1.881l.742-.743a1.335,1.335,0,0,1,1.882,0Zm10.125,10.126s-1.849,2.98-2.81,2.9c-1.755-.148-8.691-9.153-8.691-9.153l2.877-2.877Zm1.69,4.5c-.578.667-2.64-1.057-2.64-1.057l1.772-1.772S111.068,23.848,110.521,24.479Z" transform="translate(-93.439 1.168)" fill="#00a193"/>
</svg>
