<svg id="Icon_search" data-name="Icon search" xmlns="http://www.w3.org/2000/svg" width="20" height="20.955" viewBox="0 0 20 20.955">
  <rect id="Rectangle_693" data-name="Rectangle 693" width="20" height="20" transform="translate(0)" fill="none"/>
  <g id="Groupe_2041" data-name="Groupe 2041" transform="translate(-7.737 -4.545)">
    <path id="Tracé_1169" data-name="Tracé 1169" d="M26.507,25.5a4.073,4.073,0,0,1-2.427-1.322,22.283,22.283,0,0,1-2.326-2.621c-.085-.111-.19-.23-.3-.357a11.271,11.271,0,0,1-.692-1.971l-.866.523a4,4,0,0,1-.768.359,8.663,8.663,0,0,1-2.773.439,8.626,8.626,0,0,1-6.282-2.476,8.593,8.593,0,0,1-2.319-5.229A7.41,7.41,0,0,1,9.51,7.507a7.632,7.632,0,0,1,5.024-2.938c.19-.016.384-.024.577-.024a8.629,8.629,0,0,1,5.318,1.988,7.95,7.95,0,0,1,3.052,5.119c.291,2.068-.435,3.8-1.614,5.767l-.283.473.449.319A29.345,29.345,0,0,1,25.954,21.4c1.159,1.177,2.252,2.512,1.574,3.5a1.191,1.191,0,0,1-1.021.6ZM15.242,6.4a5.631,5.631,0,0,0-4.417,1.955l-.026.031-.022.035c-.2.313-.363.562-.525.782l-.024.033-.019.035a6.477,6.477,0,0,0,1.411,7.919,7.492,7.492,0,0,0,4.651,1.9,4.88,4.88,0,0,0,1.216-.151,6.334,6.334,0,0,0,2.655-1.539c.113-.1.214-.206.3-.3a2.876,2.876,0,0,1,.3-.281l.257-.42c1.043-.969,1.336-2.612.825-4.65a6.908,6.908,0,0,0-2.777-4.214A6.959,6.959,0,0,0,15.242,6.4Z" transform="translate(0)" fill="#342922"/>
  </g>
</svg>
