<svg id="instagram" xmlns="http://www.w3.org/2000/svg" width="25.254" height="25.254" viewBox="0 0 25.254 25.254">
  <path id="Tracé_1244" data-name="Tracé 1244" d="M14.525,59.574q-.754,0-1.511-.026c-.528.017-1.029.026-1.529.026-1.26,0-2.536-.058-3.794-.17a8.614,8.614,0,0,1-3.072-.554,3.81,3.81,0,0,1-1.768-1.233A6.741,6.741,0,0,1,1.1,55.346a8.534,8.534,0,0,1-.559-3.054A42.936,42.936,0,0,1,.4,46.961a42.647,42.647,0,0,1,.143-5.322,6.333,6.333,0,0,1,.543-3.048A10.64,10.64,0,0,1,4.6,35.05a8.51,8.51,0,0,1,3.034-.559c1.309-.114,2.582-.171,3.839-.171q.756,0,1.511.027c.532-.018,1.036-.027,1.54-.027,1.256,0,2.529.057,3.782.17a8.6,8.6,0,0,1,3.073.553A5.664,5.664,0,0,1,24.9,38.549a8.552,8.552,0,0,1,.557,3.053,43.106,43.106,0,0,1,.145,5.331c0,2.111-.053,3.081-.095,3.86-.027.507-.05.924-.05,1.5a8.5,8.5,0,0,1-.552,3.037,5.636,5.636,0,0,1-3.511,3.52,8.555,8.555,0,0,1-3.033.555C17.056,59.517,15.783,59.574,14.525,59.574ZM7.762,57.891c1.238.115,2.5.173,3.745.173q.753,0,1.507-.028h.016c2.135,0,3.139-.057,3.872-.1.45-.025.812-.046,1.3-.046H18.2a7.185,7.185,0,0,0,2.593-.459,5.5,5.5,0,0,0,2.677-2.661,7.1,7.1,0,0,0,.47-2.63,40.014,40.014,0,0,0,.144-5.209c0-2.147-.057-3.154-.1-3.889-.025-.449-.046-.812-.046-1.3a7.064,7.064,0,0,0-.458-2.6C22.931,37.956,19.147,36,18.286,36,17,35.889,15.741,35.83,14.5,35.83c-.5,0-5.5.059-6.735.175h-.02a7.1,7.1,0,0,0-2.54.457,8.563,8.563,0,0,0-2.676,2.659,7.071,7.071,0,0,0-.471,2.631,40.079,40.079,0,0,0-.144,5.21c0,2.146.057,3.153.1,3.888.026.45.046.812.046,1.3a7.068,7.068,0,0,0,.457,2.6,5.5,5.5,0,0,0,2.661,2.677,7.092,7.092,0,0,0,2.539.47ZM13,53.19a6.25,6.25,0,0,1-6.244-6.243v-.21A6.164,6.164,0,0,1,12.89,40.7l1.042.074c3.154,1.012,5.311,2.728,5.311,6.171A6.25,6.25,0,0,1,13,53.19Zm-.163-10.976c-2.566.047-5.133,2.236-4.57,4.74.364,1.618,2.134,4.728,4.653,4.728,0,0,5.169-2.754,5.123-5.321,0,0-2.443-4.148-4.963-4.148Zm7.1-1.363c-.655,0-1.189-.181-1.189-.837a1.19,1.19,0,0,1,1.189-1.189,1.2,1.2,0,0,1,1.189,1.192C21.122,40.67,20.589,40.851,19.933,40.851Z" transform="translate(-0.373 -34.32)" fill="#00a193" fill-rule="evenodd"/>
</svg>
