<svg xmlns="http://www.w3.org/2000/svg" xmlns:xlink="http://www.w3.org/1999/xlink" width="13.639" height="10.109" viewBox="0 0 13.639 10.109">
  <defs>
    <clipPath id="clip-path">
      <rect width="13.639" height="10.109" fill="none"/>
    </clipPath>
  </defs>
  <g id="Tick" clip-path="url(#clip-path)">
    <path id="Tracé_1166" data-name="Tracé 1166" d="M440.789,312.164c.069-.978.939-.947,1.537-.417.653.578.909,1.765,1.32,2.521.578,1.062.543,1.042,1.354.136a25.266,25.266,0,0,1,2.436-2.32A30.794,30.794,0,0,1,451,309.607a7.321,7.321,0,0,1,2.639-1.513c.94-.113.941.444.423,1.036a18.1,18.1,0,0,1-2.093,1.831c-.875.74-.481.385-1.321,1.165a37.806,37.806,0,0,0-4.542,4.628c-1.072,1.408-1.949,2.163-3.238.439-.892-1.193-2.254-3.474-2.076-5.028C440.8,311.978,440.734,312.647,440.789,312.164Z" transform="translate(-440.767 -308.079)" fill="#00a193"/>
  </g>
</svg>
