<svg id="User" xmlns="http://www.w3.org/2000/svg" width="23.124" height="23.159" viewBox="0 0 23.124 23.159">
  <g id="Groupe_2089" data-name="Groupe 2089" transform="translate(-107.947 -64.869)">
    <path id="Tracé_1250" data-name="Tracé 1250" d="M182.984,77.5a6.642,6.642,0,0,0,4.445-1.59,5.561,5.561,0,0,0,1.847-4.22s0-.008,0-.013c.013-.162.021-.325.021-.491a6.32,6.32,0,0,0-6.069-6.307c-.081,0-.162-.006-.244-.006-2.985,0-5.223,1.613-5.9,4.079a6.311,6.311,0,0,0,5.9,8.547Zm0-1.353c-2.859,0-4.706-1.688-4.706-4.3a4.95,4.95,0,0,1,1.872-3.619,6.273,6.273,0,0,1,3.944-1.587c3.183,0,3.851,2.472,3.851,4.546A4.966,4.966,0,0,1,182.984,76.143Z" transform="translate(-63.255)" fill="#342922"/>
    <path id="Tracé_1251" data-name="Tracé 1251" d="M127.975,240.9a15.124,15.124,0,0,0-16.492,0,7.613,7.613,0,0,0-3.536,6.152.871.871,0,0,0,.54.743.313.313,0,0,0,.053,0,.286.286,0,0,0,.271-.2c2.329-6.515,6.016-7.75,12-7.75,5.906,0,7.7,4.132,9.148,7.451a.881.881,0,0,0,.873.431.228.228,0,0,0,.218-.17C131.218,247.047,130.186,242.48,127.975,240.9Z" transform="translate(0 -159.774)" fill="#342922"/>
  </g>
</svg>
