<svg id="icon_facebook" data-name="icon facebook" xmlns="http://www.w3.org/2000/svg" width="14.773" height="26.288" viewBox="0 0 14.773 26.288">
    <path id="Tracé_1243" data-name="Tracé 1243" d="M-13.489,60c-2.174.426-5.866-.737-5.866-1.433v-9.4h-2.432A1.264,1.264,0,0,1-23.05,47.9V43.875c0-.7,3.695-1.262,3.695-1.262V40.6a6.869,6.869,0,0,1,1.816-4.921A6.542,6.542,0,0,1-12.716,33.8s4.439.572,4.439,1.267v3.058c0,.7-.566,1.945-1.262,1.945h-2.14c-.653,0-.819.131-.855.171-.058.066-.128.254-.128.774v1.593h2.322a5.045,5.045,0,0,1,1.265.159,1.268,1.268,0,0,1,.649,1.1V47.9c0,.7-4.235,1.262-4.235,1.262S-12.806,59.866-13.489,60Zm-4.128-2.34,3.429.644V48.483a.844.844,0,0,1,.843-.843h3.392v-3.5h-3.393c-.465,0-.843-1.077-.843-1.542V41.019a3.119,3.119,0,0,1,.911-1.785,1.815,1.815,0,0,1,1.6-.686H-9.8V35.333l-2.914-.005c-3.519-.656-5.113,2.019-5.113,5.267v2.7a.844.844,0,0,1-.842.843l-3.03.245.178,3.257,2.12.232c.464,0,1.574.146,1.574.611ZM-9.54,35.334Z" transform="translate(23.05 -33.803)" fill="#00A193"/>
</svg>  