<svg xmlns="http://www.w3.org/2000/svg" width="14" height="13.553" viewBox="0 0 14 13.553">
  <path id="Path_1195" data-name="Path 1195" d="M77.833,77.089c5.847-.943,7.023-3.319,7.023-6.846a6.947,6.947,0,0,0-7.06-6.63c-3.632,0-6.94,3.512-6.94,7.369a6.234,6.234,0,0,0,2.192,4.755A5.944,5.944,0,0,0,76.9,77.165,5.787,5.787,0,0,0,77.833,77.089Zm5.662-7.21a3.945,3.945,0,0,1-1.006,3.216A6.5,6.5,0,0,1,77.8,75.685a5.34,5.34,0,0,1-5.333-5.333c0-3.076,3.42-5.554,6.247-5.554l.164,0c2.364,0,3.038,1.536,3.97,3.663C83.05,68.935,83.266,69.426,83.5,69.879Z" transform="translate(-70.856 -63.612)" fill="#342922"/>
</svg>
