<svg id="pinterest" xmlns="http://www.w3.org/2000/svg" width="20.734" height="25.743" viewBox="0 0 20.734 25.743">
    <path id="Tracé_1245" data-name="Tracé 1245" d="M50.413,36.6a9.491,9.491,0,0,0-3.187-2.254,10.46,10.46,0,0,0-4.6-.845,28.214,28.214,0,0,0-5.778,1.53c-2.918,1.481-4.579,5.968-4.765,6.9a8.657,8.657,0,0,0,.42,4.12c.555,1.339,2.493,3.306,4.187,1.684.3-.284.782-1.463.256-2.1a1.821,1.821,0,0,1-.12-.146,3.509,3.509,0,0,1-.537-1.989,6.014,6.014,0,0,1,.733-2.934,5.792,5.792,0,0,1,4.293-3.023,7.594,7.594,0,0,1,3.332.2A4.239,4.239,0,0,1,47.7,41.732a10.254,10.254,0,0,1-.065,1.808,8.071,8.071,0,0,1-1.492,4.141A2.711,2.711,0,0,1,44.1,48.906a1.71,1.71,0,0,1-1.128-.3,1.283,1.283,0,0,1-.536-.787,2.735,2.735,0,0,1,.157-1.29l.023-.081c.113-.41.232-.788.348-1.158l.03-.1c.191-.611.39-1.244.555-1.98.194-.874-.517-3.5-1.138-3.86a2.938,2.938,0,0,0-2.342-.191,3.845,3.845,0,0,0-2.358,2.788,11.9,11.9,0,0,0,.239,3.806c-.018.058-.035.115-.047.164-.247,1.031-.487,2.047-.726,3.062-.228.963-.455,1.925-.688,2.9l-.053.217c-.24,1-.573,3.79-.573,3.79a15.442,15.442,0,0,0,.029,2.89c.027.193,1.837.664,2.112.352a12.787,12.787,0,0,0,2.145-3.618,15.26,15.26,0,0,0,.636-2.08l.105-.406c.1-.374.624-.9.816-.8a5.379,5.379,0,0,0,2.272.651,7.063,7.063,0,0,0,2.471-.3,7.319,7.319,0,0,0,1.931-.873A9.745,9.745,0,0,0,52.5,44.946a13.5,13.5,0,0,0,.216-2.38C52.719,41.653,51.343,37.6,50.413,36.6Zm-11.021,9.69.028-.1a1.179,1.179,0,0,0,.031-.8,5.373,5.373,0,0,1-.374-1.447,4.444,4.444,0,0,1,.115-1.6,2.36,2.36,0,0,1,1.375-1.733,1.449,1.449,0,0,1,.463-.073,1.749,1.749,0,0,1,1.108.862,3.429,3.429,0,0,1-.081,1.48c-.153.684-.335,1.265-.533,1.894-.128.4-.256.817-.381,1.269l-.022.079a3.961,3.961,0,0,0-.171,2.052,2.768,2.768,0,0,0,1.134,1.678,3.28,3.28,0,0,0,2.071.583,4.2,4.2,0,0,0,3.188-1.809,9.558,9.558,0,0,0,1.808-4.917,11.738,11.738,0,0,0,.072-2.084,7.393,7.393,0,0,0-1.383-3.841c-.71-.876-5.456-1.975-6.783-1.753a7.278,7.278,0,0,0-5.386,3.805,7.521,7.521,0,0,0-.917,3.661,6.1,6.1,0,0,0,.815,3.158,1.9,1.9,0,0,1-1.653-1.2,7.3,7.3,0,0,1-.335-3.234,11.5,11.5,0,0,1,.91-2.719,8.2,8.2,0,0,1,3.122-3.152,9.723,9.723,0,0,1,3.575-1.206c.474-.07.983-.1,1.506-.121a8.954,8.954,0,0,1,3.917.718,7.965,7.965,0,0,1,2.684,1.9,7.08,7.08,0,0,1,1.633,2.895,7.168,7.168,0,0,1,.26,2.03,12.065,12.065,0,0,1-.193,2.123,8.242,8.242,0,0,1-3.439,5.726,5.824,5.824,0,0,1-1.527.69,5.566,5.566,0,0,1-1.946.246,3.85,3.85,0,0,1-1.638-.465,2.4,2.4,0,0,1-1-.913l-1.66,1.208c-.122.485-.246.974-.372,1.457l-.106.415a13.624,13.624,0,0,1-.568,1.872c-.422,1.025-.436,2.313-.949,3.02,0-.5-.42-1.463-.392-1.978l.026-.517a15.491,15.491,0,0,1,.506-2.993l.053-.221c.233-.973.46-1.936.688-2.9Z" transform="translate(-31.986 -33.489)" fill="#00A193"/>
</svg>