<svg xmlns="http://www.w3.org/2000/svg" width="17" height="20" viewBox="0 0 17 20">
  <g id="Polygone_13" data-name="Polygone 13" transform="translate(17) rotate(90)" fill="none">
    <path d="M8.276,2.931a2,2,0,0,1,3.448,0l6.5,11.055A2,2,0,0,1,16.5,17H3.5a2,2,0,0,1-1.724-3.014Z" stroke="none"/>
    <path d="M 9.999999046325684 3.944611549377441 L 3.496829986572266 15.00000190734863 L 16.50315856933594 15.00000190734863 L 10.00000476837158 3.944611549377441 C 10.00000286102295 3.944611549377441 10.00000095367432 3.944611549377441 9.999999046325684 3.944611549377441 M 9.999999046325684 1.944614410400391 C 10.66860866546631 1.944614410400391 11.33721923828125 2.273265838623047 11.72386932373047 2.930571556091309 L 18.22702980041504 13.9859619140625 C 19.01130867004395 15.31922149658203 18.04999923706055 17.00000190734863 16.50317001342773 17.00000190734863 L 3.496829986572266 17.00000190734863 C 1.94999885559082 17.00000190734863 0.9886894226074219 15.31922149658203 1.772968292236328 13.9859619140625 L 8.276128768920898 2.930571556091309 C 8.662778854370117 2.273265838623047 9.331389427185059 1.944614410400391 9.999999046325684 1.944614410400391 Z" stroke="none" fill="#fd737c"/>
  </g>
</svg>