<svg id="youtube" xmlns="http://www.w3.org/2000/svg" width="29.018" height="22.102" viewBox="0 0 29.018 22.102">
    <path id="Tracé_1246" data-name="Tracé 1246" d="M76.833,45.532s-7.215-3.7-7.577-3.488a1.168,1.168,0,0,0-.577,1.013v6.955c0,.418,1.559,1.132,1.735,1.037,0,0,7.029-4.047,7.031-4.48A1.175,1.175,0,0,0,76.833,45.532Zm-6.453,3.6v-5.71l4.791,3.134Z" transform="translate(-57.857 -35.717)" fill="#00A193"/>
    <path id="Tracé_1247" data-name="Tracé 1247" d="M85.381,37.647a4.718,4.718,0,0,0-3.127-1.466l-.145-.017s-9.68-.323-9.738-.323h-.01a74.677,74.677,0,0,0-8.4,0s-3.444.563-4.614,1.851A6.958,6.958,0,0,0,58.074,41l0,.029c-.009.1-.214,2.411-.214,4.734,0,0,.205,6.808.214,6.9v.015a6.573,6.573,0,0,0,1.275,3.326c1.1,1.2,3.588,1.492,3.588,1.492,2.215.211,9.159.315,9.454.319h.017c.058,0,5.852-.038,9.688-.317l.05-.006.163-.018c.626-.066,3.757-3.3,4.354-4.811.036-.091.214-2.411.214-4.734V45.762C86.875,43.439,86.391,38.7,85.381,37.647Zm-.207,10.286c0,2.15-.187,4.364-.205,4.567-.072.56-2.3,3.23-2.841,3.287l-.181.02c-3.711.269-16.673.2-18.821,0-.11-.018-.228-.032-.354-.046a3.179,3.179,0,0,1-2.174-.908l-.016-.017a4.888,4.888,0,0,1-.818-2.332c-.013-.154-.206-2.394-.206-4.574V45.762c0-2.148.59-6.434,1.04-6.923a2.933,2.933,0,0,1,2.049-.97l.138-.016c3.765-.27,15.4-.27,19.126,0l.15.017a5.473,5.473,0,0,1,2.447,1.538l-.358-.587a4.97,4.97,0,0,1,.818,2.366c.013.145.206,2.39.206,4.575Z" transform="translate(-57.857 -35.717)" fill="#00A193"/>
</svg> 