<svg id="Arrow_Right" data-name="Arrow Right" xmlns="http://www.w3.org/2000/svg" xmlns:xlink="http://www.w3.org/1999/xlink" width="40" height="40" viewBox="0 0 40 40">
  <defs>
    <clipPath id="clip-path">
      <rect width="17.977" height="13" fill="none"/>
    </clipPath>
  </defs>
  <g id="Rectangle_1066" data-name="Rectangle 1066" fill="#fff" stroke="#d0d9d9" stroke-width="1">
    <rect width="40" height="40" rx="20" stroke="none"/>
    <rect x="0.5" y="0.5" width="39" height="39" rx="19.5" fill="none"/>
  </g>
  <g id="Arrow_Right-2" data-name="Arrow Right" transform="translate(11.011 13.5)" clip-path="url(#clip-path)">
    <path id="Tracé_1160" data-name="Tracé 1160" d="M228.152,437.445c-.194-1.8-1.679-12.512,1.47-11.959,1.751.307,1.357,4.167,1.5,5.391.212,1.8.125,3.736.517,5.5,1.127-.619,1.847-3.107,3.055-3.294,1.91-.3.375,2.435.027,3.04-.9,1.562-1.862,3.083-2.764,4.644-.659,1.139-1.454,2.925-3.188,2.642-1.577-.257-2.591-2.473-3.369-3.586a19.691,19.691,0,0,1-2.61-4.575c-.608-1.8.663-2.578,2.064-1.266,1.225,1.148,1.881,2.764,3.111,3.9a2.087,2.087,0,0,0,.089-.982c.136-.013.057,1.1.106,1.128.032.016-.035-.907-.01-.591C228.017,436.192,228.2,438,228.152,437.445Z" transform="translate(-425.465 235.635) rotate(-90)" fill="#222221"/>
  </g>
</svg>
