<svg id="Groupe_2059" data-name="Groupe 2059" xmlns="http://www.w3.org/2000/svg" width="40.336" height="44.547" viewBox="0 0 40.336 44.547">
  <g id="Groupe_2057" data-name="Groupe 2057" transform="translate(0)">
    <path id="Tracé_1196" data-name="Tracé 1196" d="M418.006,66.654l.726,2.042a.328.328,0,0,0,.17.192l1.814.817a.362.362,0,0,1,0,.639l-1.814.818a.328.328,0,0,0-.17.192l-.726,2.042a.3.3,0,0,1-.568,0l-.726-2.042a.328.328,0,0,0-.17-.192l-1.814-.818a.362.362,0,0,1,0-.639l1.814-.817a.328.328,0,0,0,.17-.192l.726-2.042A.3.3,0,0,1,418.006,66.654Z" transform="translate(-380.573 -60.658)" fill="#342922"/>
    <path id="Tracé_1197" data-name="Tracé 1197" d="M115.393.161l.539,1.515a.243.243,0,0,0,.126.142l1.346.606a.268.268,0,0,1,0,.474l-1.346.606a.243.243,0,0,0-.126.142l-.539,1.515a.219.219,0,0,1-.421,0l-.539-1.515a.243.243,0,0,0-.126-.142L112.961,2.9a.268.268,0,0,1,0-.474l1.346-.606a.243.243,0,0,0,.126-.142l.539-1.515A.219.219,0,0,1,115.393.161Z" transform="translate(-105.108)" fill="#342922"/>
    <path id="Tracé_1198" data-name="Tracé 1198" d="M372.863,27a1.067,1.067,0,1,1-1.067-1.067A1.067,1.067,0,0,1,372.863,27Z" transform="translate(-340.579 -23.679)" fill="#342922"/>
    <path id="Tracé_1199" data-name="Tracé 1199" d="M27.35,89.983a1.576,1.576,0,1,1-1.576-1.576A1.576,1.576,0,0,1,27.35,89.983Z" transform="translate(-24.197 -80.715)" fill="#342922"/>
  </g>
  <g id="Groupe_2058" data-name="Groupe 2058" transform="translate(0.968 8.453)">
    <path id="Tracé_1200" data-name="Tracé 1200" d="M53.781,133.247c-9.938,0-18.462-9.019-18.462-17.616,0-9.937,7.4-19.239,18.462-18.429,9.911.726,18.022,8.085,18.022,18.022a18.043,18.043,0,0,1-18.022,18.022Zm0-34.295c-8.973,0-15.52,6.239-16.272,16.272-.671,8.948,7.3,16.272,16.272,16.272a16.291,16.291,0,0,0,16.272-16.272c0-8.973-5.552-16.787-16.272-16.272Z" transform="translate(-35.319 -97.153)" fill="#342922"/>
    <path id="Tracé_1201" data-name="Tracé 1201" d="M122.271,205.391a.875.875,0,0,1-.875-.875c0-1.343-.719-1.881-2.062-1.881s-2.809.539-2.809,1.881a.875.875,0,0,1-1.75,0,4.185,4.185,0,0,1,8.37,0A.875.875,0,0,1,122.271,205.391Z" transform="translate(-107.863 -191.354)" fill="#342922"/>
    <path id="Tracé_1202" data-name="Tracé 1202" d="M291.543,205.391a.875.875,0,0,1-.875-.875,2.435,2.435,0,1,0-4.87,0,.875.875,0,0,1-1.75,0c0-2.308,2.775-4.185,5.083-4.185s3.287,1.878,3.287,4.185a.875.875,0,0,1-.875.875Z" transform="translate(-262.407 -191.354)" fill="#342922"/>
    <path id="Tracé_1203" data-name="Tracé 1203" d="M127.786,298.535H104.5a.875.875,0,0,0-.875.875c0,6.9,7.382,12.394,14.286,12.394s10.753-5.491,10.753-12.394A.875.875,0,0,0,127.786,298.535Zm-11.644,11.644c-7.688,0-10.536-7.443-10.734-9.894l21.928.673C126.863,305.232,123.96,310.179,116.142,310.179Z" transform="translate(-97.68 -281.014)" fill="#342922"/>
  </g>
</svg>
