<svg id="Groupe_2060" data-name="Groupe 2060" xmlns="http://www.w3.org/2000/svg" width="29.412" height="42.319" viewBox="0 0 29.412 42.319">
  <path id="Tracé_1204" data-name="Tracé 1204" d="M210.156,252.153a4.146,4.146,0,0,0-4.011,3.934c-.06,1.283.98,2.5,1.959,3.324l-.494,2.944a2.666,2.666,0,0,0,2.663,2.663c1.468,0,3.148-.643,3.148-2.111l-.485-3.464a4.132,4.132,0,0,0-2.779-7.29Zm1.673,6.06a1.469,1.469,0,0,0-.546,1.149v2.993a1.01,1.01,0,1,1-2.02,0v-2.993a1.469,1.469,0,0,0-.546-1.149h0a2.461,2.461,0,0,1-.92-2.049,2.486,2.486,0,0,1,2.405-2.359h.071a2.479,2.479,0,0,1,1.556,4.409Z" transform="translate(-195.212 -231.313)" fill="#342922"/>
  <path id="Tracé_1205" data-name="Tracé 1205" d="M375.528,320.242a.826.826,0,1,0-1.169,1.168c.154.154.367.636.584.636s.431-.482.584-.636a.826.826,0,0,0,0-1.168Z" transform="translate(-349.306 -293.555)" fill="#342922"/>
  <path id="Tracé_1206" data-name="Tracé 1206" d="M257.429,201.77a.826.826,0,0,0,.615-.994,11.408,11.408,0,0,0-11.1-8.776.826.826,0,0,0-.826.826c0,.456,9.275,3.911,10.317,8.329a.825.825,0,0,0,.994.614Z" transform="translate(-231.884 -176.133)" fill="#342922"/>
  <path id="Tracé_1207" data-name="Tracé 1207" d="M99.686,16.746v-6C99.686,4.819,96.369,0,90.445,0S78.2,4.819,78.2,10.743v6a15,15,0,0,0-4.3,10.379.787.787,0,0,0,0,.293,15,15,0,0,0,4.294,10.37l.008.008q.1.1.207.207l.039.038q.1.093.193.185l.054.05c.063.058.125.117.189.174l.048.043a14.987,14.987,0,0,0,10.015,3.827c8.3,0,14.352-5.34,14.352-13.638C103.295,24.588,102.347,19.461,99.686,16.746ZM88.943,40.5c-7.295,0-12-7.561-13.23-13.23-1.038-4.78,5.935-13.23,13.23-13.23s13.126,7.6,13.126,14.891S96.238,40.5,88.943,40.5Zm5.124-27.379c-1.6-.581-2.772-1.278-4.571-1.278a15.646,15.646,0,0,0-5.254.506l-.423-1.607c0-2.825,2.36-4.538,5.124-5.124,3.781-.8,5.124,2.3,5.124,5.124ZM88.943,1.653a9.1,9.1,0,0,1,9.09,9.09v4.544a15.079,15.079,0,0,0-2.314-1.45V10.743a6.776,6.776,0,0,0-13.553,0v3.095a15.079,15.079,0,0,0-2.314,1.45V10.743C80.128,7.35,83.93,1.653,88.943,1.653Z" transform="translate(-73.883)" fill="#342922"/>
</svg>
