<svg xmlns="http://www.w3.org/2000/svg" width="39.602" height="45.01" viewBox="0 0 39.602 45.01">
  <g id="Groupe_2071" data-name="Groupe 2071" transform="translate(-31.586)">
    <g id="Groupe_2064" data-name="Groupe 2064" transform="translate(44.238 9.031)">
      <g id="Groupe_2063" data-name="Groupe 2063" transform="translate(0)">
        <path id="Tracé_1212" data-name="Tracé 1212" d="M189.62,107.836a.879.879,0,0,0-.71-.6l-3.824-.555-1.711-3.465a.879.879,0,0,0-.788-.49h0c-.335,0-1.756,3.964-1.756,3.964s-5.171.829-5.275,1.147a.879.879,0,0,0,.223.9l2.768,2.7s-.573,4.472-.3,4.669a.879.879,0,0,0,.926.067l3.42-1.8s4.076,1.927,4.347,1.73a.879.879,0,0,0,.35-.86l-.391-3.493S189.723,108.154,189.62,107.836Zm-4.547,2.663a16.6,16.6,0,0,0,.178,3.287L183,112.6a.879.879,0,0,0-.818,0l-2.253,1.185a20.635,20.635,0,0,0,.2-3.665l-1.843-1.4,2.519-.367a.879.879,0,0,0,.662-.481l1.126-2.283a16.6,16.6,0,0,0,1.789,2.763l2.519.365Z" transform="translate(-175.512 -102.728)" fill="#342922"/>
      </g>
    </g>
    <g id="Groupe_2066" data-name="Groupe 2066" transform="translate(31.586)">
      <g id="Groupe_2065" data-name="Groupe 2065" transform="translate(0)">
        <path id="Tracé_1213" data-name="Tracé 1213" d="M71.071,38.625,63.8,25.986c2.383-1.805,3.435-4.673,3.435-8.447C67.239,8.716,62.351,0,53.529,0S36.156,6.066,36.156,14.889c0,3.775.473,8.358,2.667,11.1,0,0-7.421,13.289-7.234,13.567a.879.879,0,0,0,.847.381l5.671-.762,2.176,5.292a.879.879,0,0,0,.754.543l.059,0c.313,0,8.1-13.145,8.1-13.145l0-.006a16.644,16.644,0,0,0,2.118-.136,16.645,16.645,0,0,0,2.118.136l0,.006s7.784,13.145,8.1,13.145l.059,0a.879.879,0,0,0,.754-.543l2.176-5.292s6.332.658,6.518.38A.88.88,0,0,0,71.071,38.625ZM41.229,42.143c-.767.7-1.584-3.852-1.584-3.852s1.545-3.275,1.131-3.529a.879.879,0,0,0-1.209.29L38.131,37.4l-4.161.559,6.461-10.382c3.772,2,4.134,3.221,6.938,3.935C47.37,31.507,44.238,39.379,41.229,42.143Zm10.085-11.9A14.258,14.258,0,0,1,37.072,16c0-7.853,6.463-13.168,14.242-14.242C59.118.681,65.555,8.147,65.555,16A14.258,14.258,0,0,1,51.314,30.241ZM64.5,37.4s-2.231-2.888-2.645-2.634a.879.879,0,0,0-.29,1.209l1.422,2.32L61.4,42.143l-6.14-10.635c5.274-.727,5.314-2.17,7.309-4.146l6.09,10.593Z" transform="translate(-31.586)" fill="#342922"/>
      </g>
    </g>
    <g id="Groupe_2068" data-name="Groupe 2068" transform="translate(45.372 4.571)">
      <g id="Groupe_2067" data-name="Groupe 2067">
        <path id="Tracé_1214" data-name="Tracé 1214" d="M194.346,52c-1.962,0-6.171,2.237-5.932,2.66a.879.879,0,0,0,1.2.335,7.326,7.326,0,0,1,4.735-1.237c14.739,2.7,8.708,14.794,9.147,15a.878.878,0,0,0,1.172-.415,11.327,11.327,0,0,0,1.11-4.919A11.441,11.441,0,0,0,194.346,52Z" transform="translate(-188.404 -52)" fill="#342922"/>
      </g>
    </g>
    <g id="Groupe_2070" data-name="Groupe 2070" transform="translate(39.885 10.752)">
      <g id="Groupe_2069" data-name="Groupe 2069" transform="translate(0)">
        <path id="Tracé_1215" data-name="Tracé 1215" d="M143.278,136.375c-.234-.425-4.224.849-5.854.849a9.681,9.681,0,0,1-9.67-9.67c0-1.4.871-4.967.429-5.168a.879.879,0,0,0-1.164.436,11.432,11.432,0,0,0,15.913,14.748A.879.879,0,0,0,143.278,136.375Z" transform="translate(-125.996 -122.306)" fill="#342922"/>
      </g>
    </g>
  </g>
</svg>
