<svg xmlns="http://www.w3.org/2000/svg" width="43.697" height="48.105" viewBox="0 0 43.697 48.105">
  <g id="Groupe_2062" data-name="Groupe 2062" transform="translate(0 0)">
    <g id="Groupe_2061" data-name="Groupe 2061" transform="translate(0 0)">
      <path id="Tracé_1208" data-name="Tracé 1208" d="M263.551-50.4a.949.949,0,0,0,.282-.672l.034-6.337a.952.952,0,0,0-.947-.957c-.526,0-.992,7.284-.992,7.284,0,.526.676,1.364,1.2,1.367C263.394-49.712,263.377-50.228,263.551-50.4Z" transform="translate(-240.413 58.365)" fill="#342922"/>
      <path id="Tracé_1209" data-name="Tracé 1209" d="M187.018,2.394c.374-.37.095-1.545-.275-1.919,0,0-3.283-2.713-3.657-2.343a.952.952,0,0,0-.007,1.346l2.311,2.336C185.759,2.188,186.644,2.764,187.018,2.394Z" transform="translate(-168.821 7.278)" fill="#342922"/>
      <path id="Tracé_1210" data-name="Tracé 1210" d="M319.214.36a.952.952,0,0,0,1.346.007s2.713-3.283,2.343-3.657a.952.952,0,0,0-1.346-.007S318.844-.014,319.214.36Z" transform="translate(-292.213 8.789)" fill="#342922"/>
      <path id="Tracé_1211" data-name="Tracé 1211" d="M79.348,80.368,73.92,75.579A10.47,10.47,0,0,0,72.8,70.892l1.682-1.683A3.234,3.234,0,0,0,72.2,63.688a3.232,3.232,0,0,0-3.231-3.229,3.232,3.232,0,0,0-3.228-3.231A3.235,3.235,0,0,0,62.506,54a5.781,5.781,0,0,0-3.123,1.211l-2.5,3.074-1.857-1.857A3.235,3.235,0,0,0,49.5,58.71a3.232,3.232,0,0,0-3.229,3.228,3.235,3.235,0,0,0-2.825,4.8,3.233,3.233,0,0,0-1.278,5.36l1.348,1.348-7.309,5.8a.952.952,0,1,0,1.346,1.346l3.86-2.348,1.346-1.346L45.468,74.9s6.182,4.411,6.194,6.691c.014,2.506-6.728,7.43-6.728,7.43a.952.952,0,1,0,1.346,1.346l7.108-7.81A3.463,3.463,0,0,1,54.3,81.9l2.3,1.517c1.524,1,4.114,2.149,5.905,1.859l4.595,3.964c.186.186,1.534,2.167,1.777,2.167a.952.952,0,0,0,.673-1.625L63.7,83.755l-.939-.939a.951.951,0,0,0-.9-.252c-1.441.347-2.852.831-4.09.016L56.1,81.969a18.505,18.505,0,0,0,10.51-4.891l4.751-4.751a8.569,8.569,0,0,1,.649,3.117l.885,1.807,2.1,2.1,3,2.361a.952.952,0,0,0,1.346-1.346ZM51.8,57.773a1.331,1.331,0,0,1,1.883,0L57.106,61.2a1.331,1.331,0,0,1-1.882,1.883h0s-3.818-4.014-3.818-4.37A1.322,1.322,0,0,1,51.8,57.773ZM48.566,61a1.327,1.327,0,0,1,.941-.389c.341,0,4.37,3.818,4.37,3.818a1.331,1.331,0,0,1-.941,2.273c-.355,0-4.37-3.818-4.37-3.818a1.331,1.331,0,0,1,0-1.883Zm-3.229,3.229c.251-.252,5.311,3.428,5.311,3.428a1.331,1.331,0,1,1-1.883,1.883l-3.428-3.428a1.333,1.333,0,0,1,0-1.883Zm1.141,8.93a1.323,1.323,0,0,1-.941-.389h0l-2.021-2.021a1.333,1.333,0,0,1,0-1.883h0a1.333,1.333,0,0,1,1.882,0l2.022,2.022a1.323,1.323,0,0,1,.39.941A2.444,2.444,0,0,1,46.478,73.162ZM67.348,74.8a19.577,19.577,0,0,1-11.515,4.837c-.965,0-1.567.559-3.238.192l-4.974-4.974a3.239,3.239,0,0,0,2.091-3.023,3.225,3.225,0,0,0,2.282-.946,4.021,4.021,0,0,0,.819-2.65,7.174,7.174,0,0,0,3.4-1.535c.629-.629.1-1.041.1-1.868.862,0,3.087-1.829,3.087-2.693a3.214,3.214,0,0,0-.948-2.288l-.225-.225L60.573,55.9a3.783,3.783,0,0,1,1.622-.644c.356,0,1,.783,1.252,1.034a1.331,1.331,0,0,1,0,1.883s-2.464,3.067-2.092,3.438a.952.952,0,0,0,1.346,0l2.092-2.092A1.331,1.331,0,0,1,66.677,61.4L63.482,64.6a.952.952,0,0,0,.673,1.625c.244,0,3.868-3.473,3.868-3.473a1.331,1.331,0,1,1,1.883,1.883l-3.194,3.194c-.372.372.43,1.625.673,1.625a.949.949,0,0,0,.673-.279l3.194-3.194a1.331,1.331,0,0,1,1.883,1.883Z" transform="translate(-35.929 -43.302)" fill="#342922"/>
    </g>
  </g>
</svg>
