<svg id="Heart" xmlns="http://www.w3.org/2000/svg" width="25.484" height="23.889" viewBox="0 0 25.484 23.889">
  <path id="Tracé_1173" data-name="Tracé 1173" d="M22.288,1.026A4.979,4.979,0,0,0,18.909-.5c-1.444,0-3.079.749-5.591,2.57C10.969.405,8.9-.405,7.013-.405A6.79,6.79,0,0,0,2.1,1.843c-3.4,3.457-3.484,8.095-.218,12.122a104.554,104.554,0,0,0,8.233,8.315,3.291,3.291,0,0,0,2.267,1.109h0a2.853,2.853,0,0,0,2.181-1.19c.841-1.006,1.7-2,2.56-2.991a90.23,90.23,0,0,0,6.229-7.756C25.852,7.823,25.442,3.828,22.288,1.026Zm-9.976,20.39c-.9-.767-1.79-1.563-2.759-2.441-1.86-1.68-3.372-3.127-4.732-4.526a15.692,15.692,0,0,1-3-5.72,5.649,5.649,0,0,1-.16-.857A5.515,5.515,0,0,1,4.957,2.155a5.677,5.677,0,0,1,2.439-.6A5.828,5.828,0,0,1,11.6,3.679a15.06,15.06,0,0,1,1.013,1.246c.157.209.315.417.478.622l.279.353.381-.241a3.369,3.369,0,0,0,.7-.607c1.5-2.316,2.679-3.3,3.943-3.3a3.865,3.865,0,0,1,1.742.5,5.022,5.022,0,0,1,2.751,4.539A6.6,6.6,0,0,1,22.237,9.6C19.943,14.507,16.134,18.186,12.312,21.416Z" transform="translate(0.507 0.5)" fill="#342922"/>
</svg>
