<svg id="User" xmlns="http://www.w3.org/2000/svg" width="24.123" height="24.161" viewBox="0 0 24.123 24.161">
  <g id="Groupe_2089" data-name="Groupe 2089">
    <path id="Tracé_1250" data-name="Tracé 1250" d="M183.257,78.041a6.929,6.929,0,0,0,4.637-1.658,5.8,5.8,0,0,0,1.927-4.4s0-.009,0-.013c.013-.169.022-.339.022-.512a6.593,6.593,0,0,0-6.332-6.58c-.085,0-.169-.006-.255-.006-3.114,0-5.449,1.683-6.159,4.255a6.584,6.584,0,0,0,6.159,8.917Zm0-1.411c-2.983,0-4.91-1.761-4.91-4.486a5.164,5.164,0,0,1,1.953-3.775,6.544,6.544,0,0,1,4.114-1.656c3.321,0,4.018,2.579,4.018,4.742A5.181,5.181,0,0,1,183.257,76.63Z" transform="translate(-170.965 -64.869)" fill="#342922"/>
    <path id="Tracé_1251" data-name="Tracé 1251" d="M128.841,241.009a15.778,15.778,0,0,0-17.2,0,7.942,7.942,0,0,0-3.689,6.418.909.909,0,0,0,.564.775.328.328,0,0,0,.055,0,.3.3,0,0,0,.282-.212c2.43-6.8,6.276-8.085,12.523-8.085,6.161,0,8.036,4.31,9.543,7.773a.919.919,0,0,0,.911.45.238.238,0,0,0,.228-.178C132.224,247.418,131.147,242.654,128.841,241.009Z" transform="translate(-107.947 -224.046)" fill="#342922"/>
  </g>
</svg>
